<svg xmlns="http://www.w3.org/2000/svg" xmlns:xlink="http://www.w3.org/1999/xlink" width="100" zoomAndPan="magnify" viewBox="0 0 75 96.749999" height="129" preserveAspectRatio="xMidYMid meet" version="1.2"><defs><clipPath id="14d7becfdd"><path d="M 0.0976562 0 L 74.15625 0 L 74.15625 95.753906 L 0.0976562 95.753906 Z M 0.0976562 0 "/></clipPath><clipPath id="efc03d95b3"><path d="M 0.0976562 16 L 1 16 L 1 17 L 0.0976562 17 Z M 0.0976562 16 "/></clipPath><clipPath id="a2dd0d9e86"><path d="M 0.0976562 0 L 74.15625 0 L 74.15625 95.753906 L 0.0976562 95.753906 Z M 0.0976562 0 "/></clipPath></defs><g id="e2a1db5fc6"><g clip-rule="nonzero" clip-path="url(#14d7becfdd)"><path style=" stroke:none;fill-rule:nonzero;fill:#856962;fill-opacity:1;" d="M 73.996094 29.414062 C 74.117188 24.320312 73.074219 19.328125 72.5625 14.289062 C 72.792969 13.113281 71.769531 12.703125 71.066406 13.039062 C 70.890625 12.886719 70.65625 12.789062 70.359375 12.800781 C 61.738281 13.390625 53.109375 13.804688 44.480469 14.175781 C 44.480469 13.90625 44.484375 13.652344 44.488281 13.4375 C 44.414062 10.222656 44.210938 7.015625 44.261719 3.800781 C 44.199219 2.945312 44.488281 1.929688 43.867188 1.226562 C 42.570312 -0.00390625 38.566406 1.296875 36.789062 1.386719 C 35.773438 1.667969 33.867188 1.160156 33.484375 2.410156 C 32.601562 3.023438 32.859375 4.308594 32.71875 5.253906 C 32.433594 8.390625 32.261719 11.539062 32.214844 14.6875 C 26.542969 14.914062 20.871094 15.136719 15.203125 15.394531 C 11.664062 15.542969 8.128906 15.734375 4.59375 15.914062 C 3.535156 15.96875 2.476562 16.03125 1.417969 16.050781 C 1.140625 15.992188 0.847656 16.058594 0.617188 16.230469 C 0.394531 16.386719 0.207031 16.605469 0.167969 16.878906 C 0.125 17.175781 0.207031 17.472656 0.375 17.707031 C 0.316406 17.957031 0.320312 18.230469 0.332031 18.496094 C 0.964844 25.710938 0.808594 32.949219 1 40.183594 C 1.632812 53.757812 1.976562 67.34375 2.519531 80.925781 C 2.667969 84.242188 2.808594 87.558594 2.960938 90.878906 C 3.003906 91.902344 3.066406 92.925781 3.070312 93.953125 C 2.976562 94.691406 3.136719 95.574219 4.03125 95.652344 C 4.054688 95.652344 4.078125 95.652344 4.097656 95.652344 C 4.285156 95.652344 4.457031 95.585938 4.617188 95.496094 C 5.257812 95.597656 5.964844 95.535156 6.628906 95.601562 C 9.875 95.640625 13.050781 95.734375 16.296875 95.742188 L 17.84375 95.742188 C 29.894531 95.742188 41.945312 95.652344 53.980469 95.023438 C 59.972656 94.851562 65.964844 94.828125 71.9375 94.339844 C 72.867188 94.265625 73.085938 93.347656 72.738281 92.753906 C 72.660156 90.414062 72.53125 88.078125 72.453125 85.738281 C 71.949219 76.175781 72.082031 66.621094 72.746094 57.070312 C 73.203125 47.851562 73.863281 38.644531 73.996094 29.414062 Z M 73.996094 29.414062 "/></g><path style=" stroke:none;fill-rule:nonzero;fill:#bcca9e;fill-opacity:1;" d="M 5.15625 93.425781 C 5.140625 92.351562 5.070312 91.277344 5.023438 90.207031 C 4.765625 84.324219 4.484375 78.4375 4.273438 72.550781 C 4.03125 61.152344 3.425781 49.773438 3.042969 38.378906 C 2.953125 31.660156 2.96875 24.9375 2.417969 18.234375 C 2.441406 18.160156 2.457031 18.089844 2.464844 18.015625 C 12.367188 17.675781 22.277344 17.230469 32.191406 16.78125 C 32.191406 17.507812 32.207031 18.238281 32.222656 18.960938 C 32.460938 25.410156 30.203125 25.898438 37.804688 25.933594 C 38.84375 25.933594 39.890625 25.925781 40.933594 25.890625 C 41.515625 25.839844 42.148438 25.925781 42.667969 25.613281 C 44.242188 24.328125 44.445312 19.648438 44.472656 16.234375 C 48.734375 16.046875 52.992188 15.863281 57.25 15.699219 C 61.660156 15.457031 66.074219 15.214844 70.480469 14.886719 C 70.496094 14.886719 70.503906 14.886719 70.515625 14.882812 C 70.832031 18.425781 71.582031 21.917969 71.78125 25.476562 C 72.15625 34.550781 71.28125 43.632812 70.878906 52.699219 C 70.527344 59.566406 70.035156 66.425781 70.003906 73.304688 C 70.074219 79.648438 70.378906 85.992188 70.625 92.332031 C 61.574219 92.925781 52.492188 92.859375 43.433594 93.359375 C 36.683594 93.636719 29.929688 93.597656 23.179688 93.628906 C 20.894531 93.628906 18.613281 93.644531 16.328125 93.644531 C 12.605469 93.644531 8.882812 93.609375 5.152344 93.421875 Z M 5.15625 93.425781 "/><path style=" stroke:none;fill-rule:nonzero;fill:#fce9ba;fill-opacity:1;" d="M 34.222656 23.683594 C 34.285156 21.355469 34.289062 19.019531 34.304688 16.6875 C 34.304688 16.621094 34.308594 16.554688 34.308594 16.488281 C 34.308594 16.265625 34.308594 16.042969 34.3125 15.824219 C 34.316406 15.417969 34.320312 15.011719 34.324219 14.601562 C 34.375 10.9375 34.511719 7.28125 35.015625 3.660156 C 37.421875 3.523438 39.773438 2.929688 42.175781 2.796875 C 42.121094 6.628906 42.328125 10.449219 42.394531 14.273438 C 42.398438 14.332031 42.398438 14.390625 42.398438 14.449219 C 42.40625 14.773438 42.40625 15.09375 42.414062 15.421875 C 42.410156 15.511719 42.40625 15.601562 42.40625 15.695312 C 42.398438 15.855469 42.394531 16.015625 42.390625 16.179688 C 42.390625 16.226562 42.390625 16.273438 42.386719 16.324219 C 42.332031 18.753906 42.269531 21.421875 41.507812 23.777344 C 40.9375 23.820312 40.363281 23.816406 39.796875 23.828125 C 39.058594 23.84375 38.316406 23.847656 37.578125 23.847656 C 36.457031 23.839844 35.335938 23.8125 34.222656 23.679688 Z M 34.222656 23.683594 "/><path style=" stroke:none;fill-rule:nonzero;fill:#f8ebce;fill-opacity:1;" d="M 34.59375 83.921875 C 25.605469 83.6875 23.960938 74.230469 28.011719 67.683594 C 22.878906 68.242188 17.503906 65.226562 15.386719 60.503906 C 14.132812 57.976562 15.832031 55.40625 17.472656 53.523438 C 20.367188 50 25.480469 49.363281 29.761719 49.882812 C 27.808594 46.421875 26.046875 42.332031 26.941406 38.296875 C 27.71875 34.914062 31.996094 34.285156 34.617188 35.933594 C 38.167969 38.183594 39.613281 42.476562 40.976562 46.238281 C 42.625 43.042969 45.050781 39.570312 48.785156 38.785156 C 52.972656 37.941406 56.335938 41.289062 56.019531 45.4375 C 55.785156 49.671875 52.71875 53.019531 49.929688 55.945312 C 55.144531 57.132812 61.304688 60.140625 61.636719 66.171875 C 62.113281 70.136719 59.816406 73.082031 55.914062 73.777344 C 52.488281 74.398438 49.152344 72.785156 46.378906 70.921875 C 46.378906 77.027344 42.140625 83.128906 35.949219 83.855469 C 35.546875 83.902344 35.140625 83.925781 34.722656 83.925781 C 34.679688 83.925781 34.636719 83.925781 34.59375 83.925781 Z M 34.59375 83.921875 "/><path style=" stroke:none;fill-rule:nonzero;fill:#f2d194;fill-opacity:1;" d="M 44.855469 58.539062 C 45.574219 63.066406 40.925781 65.984375 36.847656 64.773438 C 33.394531 63.917969 33.226562 59.507812 34.734375 56.894531 C 35.515625 55.296875 37.261719 54.777344 38.882812 54.476562 C 41.53125 53.90625 44.375 55.894531 44.855469 58.539062 Z M 44.855469 58.539062 "/><g clip-rule="nonzero" clip-path="url(#efc03d95b3)"><path style=" stroke:none;fill-rule:nonzero;fill:#856962;fill-opacity:1;" d="M 0.535156 16.273438 C 0.558594 16.253906 0.589844 16.25 0.617188 16.234375 C 0.640625 16.214844 0.65625 16.191406 0.679688 16.175781 C 0.625 16.199219 0.585938 16.242188 0.535156 16.273438 Z M 0.535156 16.273438 "/></g><g clip-rule="nonzero" clip-path="url(#a2dd0d9e86)"><path style=" stroke:none;fill-rule:nonzero;fill:#856962;fill-opacity:1;" d="M 73.996094 29.414062 C 74.117188 24.324219 73.074219 19.328125 72.5625 14.289062 C 72.792969 13.113281 71.769531 12.703125 71.066406 13.039062 C 70.890625 12.886719 70.65625 12.785156 70.359375 12.800781 C 61.738281 13.390625 53.109375 13.804688 44.480469 14.175781 C 44.480469 13.90625 44.484375 13.652344 44.488281 13.433594 C 44.414062 10.222656 44.210938 7.015625 44.261719 3.800781 C 44.199219 2.945312 44.488281 1.929688 43.867188 1.226562 C 42.570312 -0.00390625 38.566406 1.296875 36.789062 1.386719 C 35.773438 1.667969 33.867188 1.160156 33.484375 2.40625 C 32.601562 3.023438 32.859375 4.308594 32.71875 5.253906 C 32.433594 8.390625 32.261719 11.539062 32.214844 14.6875 C 26.542969 14.914062 20.871094 15.136719 15.203125 15.394531 C 11.667969 15.539062 8.132812 15.734375 4.59375 15.914062 C 3.535156 15.964844 2.476562 16.03125 1.417969 16.050781 C 1.140625 15.992188 0.847656 16.058594 0.617188 16.230469 C 0.394531 16.386719 0.207031 16.605469 0.167969 16.878906 C 0.125 17.175781 0.203125 17.472656 0.371094 17.707031 C 0.316406 17.957031 0.320312 18.230469 0.332031 18.496094 C 0.964844 25.710938 0.808594 32.949219 0.996094 40.183594 C 1.632812 53.761719 1.976562 67.34375 2.519531 80.925781 C 2.667969 84.242188 2.808594 87.558594 2.957031 90.878906 C 3.003906 91.902344 3.066406 92.925781 3.070312 93.953125 C 2.976562 94.691406 3.136719 95.574219 4.03125 95.652344 C 4.050781 95.652344 4.074219 95.652344 4.097656 95.652344 C 4.285156 95.652344 4.457031 95.585938 4.617188 95.496094 C 5.257812 95.597656 5.964844 95.535156 6.628906 95.605469 C 9.917969 95.644531 13.136719 95.738281 16.429688 95.742188 L 16.296875 95.742188 C 16.8125 95.742188 17.328125 95.742188 17.839844 95.742188 C 29.890625 95.742188 41.945312 95.652344 53.980469 95.023438 C 59.96875 94.855469 65.960938 94.828125 71.9375 94.339844 C 72.863281 94.265625 73.085938 93.347656 72.738281 92.753906 C 72.65625 90.417969 72.527344 88.078125 72.449219 85.742188 C 71.945312 76.179688 72.078125 66.621094 72.746094 57.074219 C 73.199219 47.855469 73.859375 38.644531 73.996094 29.414062 Z M 42.175781 2.796875 C 42.113281 7.007812 42.371094 11.210938 42.410156 15.421875 C 42.335938 18.082031 42.367188 21.128906 41.507812 23.777344 C 40.9375 23.820312 40.363281 23.816406 39.796875 23.828125 C 39.070312 23.84375 38.339844 23.847656 37.613281 23.847656 C 36.484375 23.839844 35.347656 23.816406 34.222656 23.679688 C 34.402344 17.011719 34.097656 10.269531 35.015625 3.660156 C 37.421875 3.523438 39.773438 2.929688 42.175781 2.796875 Z M 43.433594 93.359375 C 36.683594 93.636719 29.929688 93.597656 23.179688 93.628906 C 17.167969 93.632812 11.160156 93.714844 5.136719 93.417969 C 5.121094 92.347656 5.070312 91.277344 5.023438 90.207031 C 4.765625 84.320312 4.484375 78.4375 4.273438 72.546875 C 4.03125 61.148438 3.425781 49.769531 3.042969 38.378906 C 2.953125 31.65625 2.96875 24.933594 2.417969 18.230469 C 2.441406 18.15625 2.441406 18.085938 2.449219 18.011719 C 12.359375 17.667969 22.277344 17.226562 32.203125 16.777344 C 32.207031 17.507812 32.203125 18.234375 32.21875 18.960938 C 32.457031 25.410156 30.203125 25.898438 37.800781 25.933594 C 37.894531 25.933594 37.988281 25.933594 38.082031 25.933594 C 39.03125 25.933594 39.984375 25.925781 40.933594 25.886719 C 41.511719 25.839844 42.148438 25.921875 42.667969 25.609375 C 44.238281 24.328125 44.441406 19.648438 44.46875 16.234375 C 48.730469 16.046875 52.992188 15.863281 57.246094 15.695312 C 61.660156 15.453125 66.074219 15.210938 70.480469 14.886719 C 70.496094 14.882812 70.507812 14.875 70.527344 14.871094 C 70.839844 18.417969 71.582031 21.914062 71.78125 25.472656 C 72.15625 34.550781 71.277344 43.632812 70.878906 52.695312 C 70.527344 59.5625 70.035156 66.425781 70.003906 73.304688 C 70.070312 79.644531 70.375 85.980469 70.625 92.316406 C 61.570312 92.90625 52.488281 92.859375 43.429688 93.359375 Z M 43.433594 93.359375 "/></g></g></svg>