<svg xmlns="http://www.w3.org/2000/svg" xmlns:xlink="http://www.w3.org/1999/xlink" width="116" zoomAndPan="magnify" viewBox="0 0 87 101.249998" height="135" preserveAspectRatio="xMidYMid meet" version="1.2"><defs><clipPath id="0b3856c70a"><path d="M 0.320312 0 L 86.679688 0 L 86.679688 100.503906 L 0.320312 100.503906 Z M 0.320312 0 "/></clipPath><clipPath id="fd9dc5a462"><path d="M 0.320312 0 L 86.679688 0 L 86.679688 100.503906 L 0.320312 100.503906 Z M 0.320312 0 "/></clipPath></defs><g id="fa5aa07298"><g clip-rule="nonzero" clip-path="url(#0b3856c70a)"><path style=" stroke:none;fill-rule:nonzero;fill:#856962;fill-opacity:1;" d="M 86.117188 35.65625 C 86.363281 30.535156 86.652344 25.410156 86.359375 20.277344 C 86.324219 19.414062 86.273438 18.550781 86.199219 17.6875 C 86.195312 17.480469 86.148438 17.265625 86.078125 17.0625 C 86.351562 16.769531 86.476562 16.332031 86.222656 15.964844 C 85.996094 15.644531 85.691406 15.433594 85.300781 15.347656 C 80.519531 14.820312 75.730469 14.320312 70.910156 14.292969 C 67.777344 14.195312 64.601562 14.117188 61.449219 14.070312 C 59.089844 13.953125 56.730469 14.015625 54.371094 14.078125 C 53.269531 14.105469 52.164062 14.113281 51.0625 14.125 C 51.058594 13.722656 51.054688 13.320312 51.050781 12.917969 C 51.074219 10.980469 51.070312 9.046875 51.070312 7.113281 C 51.019531 5.113281 51.285156 3.050781 50.875 1.085938 C 50.605469 0.371094 49.703125 0.355469 49.058594 0.316406 C 47.089844 0.210938 45.261719 0.191406 43.246094 0.113281 C 42.347656 0.0859375 41.414062 0.0742188 40.507812 0.0546875 C 39.71875 0.0390625 38.929688 0.0117188 38.140625 0 C 37.632812 -0.0078125 37.230469 0.46875 37.242188 0.953125 C 36.148438 5.210938 36.386719 9.625 36.53125 14 C 30.894531 13.90625 25.261719 13.832031 19.628906 14 C 15.707031 14.183594 11.78125 14.417969 7.859375 14.585938 C 5.902344 14.660156 3.945312 14.699219 1.992188 14.746094 C 1.328125 14.664062 0.796875 15.316406 0.980469 15.945312 C 0.996094 16 1.03125 16.035156 1.054688 16.082031 C 1.058594 16.144531 1.042969 16.199219 1.058594 16.265625 C 1.394531 19.40625 1.207031 22.605469 1.050781 25.753906 C 0.894531 29.757812 0.773438 33.765625 0.671875 37.769531 C 0.476562 45.703125 0.917969 53.636719 0.808594 61.574219 C 0.613281 67.488281 0.351562 73.40625 0.585938 79.324219 C 0.765625 82.320312 0.886719 85.320312 1.042969 88.316406 C 1.339844 91.871094 1.542969 95.433594 1.285156 99.003906 C 1.285156 99.507812 1.710938 99.929688 2.214844 99.929688 C 2.53125 99.929688 2.796875 99.761719 2.964844 99.515625 C 3.125 99.503906 3.289062 99.476562 3.445312 99.457031 C 7.679688 98.980469 11.863281 99.355469 16.121094 99.425781 C 25.75 99.675781 35.445312 100.015625 45.082031 100.464844 C 46.582031 100.480469 48.078125 100.5 49.578125 100.5 C 52.082031 100.5 54.582031 100.449219 57.078125 100.257812 C 61.296875 99.875 65.363281 99.554688 69.609375 99.875 C 72.417969 99.875 75.226562 99.8125 78.035156 99.917969 C 78.6875 99.914062 79.351562 99.9375 80.019531 99.960938 C 81.441406 100.007812 82.878906 100.058594 84.269531 99.859375 C 85.328125 99.769531 85.601562 98.867188 85.273438 98.324219 C 85.503906 97.9375 85.445312 97.339844 85.402344 96.851562 C 85.304688 95.304688 85.171875 93.757812 85.066406 92.210938 C 84.753906 87.414062 85.019531 82.449219 84.882812 77.625 C 85.097656 69.636719 85.152344 61.648438 85.347656 53.660156 C 85.546875 47.65625 85.945312 41.664062 86.117188 35.65625 Z M 86.117188 35.65625 "/></g><path style=" stroke:none;fill-rule:nonzero;fill:#fcbdbe;fill-opacity:1;" d="M 45.398438 98.621094 C 36.570312 98.257812 27.738281 97.828125 18.902344 97.671875 C 13.71875 97.570312 8.394531 97.054688 3.199219 97.625 C 3.214844 97.308594 3.230469 96.996094 3.242188 96.679688 C 3.382812 93.9375 3.09375 91.195312 2.910156 88.460938 C 2.730469 85.058594 2.5625 81.644531 2.402344 78.242188 C 2.289062 73.269531 2.386719 68.300781 2.625 63.332031 C 2.800781 57.394531 2.570312 51.453125 2.480469 45.515625 C 2.441406 39.558594 2.632812 33.601562 2.832031 27.652344 C 2.992188 24.191406 3.21875 20.734375 3.019531 17.273438 C 3.003906 17.042969 2.988281 16.8125 2.96875 16.582031 C 3.003906 16.582031 3.035156 16.582031 3.066406 16.582031 C 4.339844 16.53125 5.617188 16.527344 6.890625 16.480469 C 11.597656 16.316406 16.300781 16.003906 21.003906 15.796875 C 26.195312 15.726562 31.390625 15.785156 36.582031 15.855469 C 36.59375 16.460938 36.597656 17.066406 36.597656 17.667969 C 36.539062 18.828125 36.425781 19.984375 36.304688 21.144531 C 35.808594 23.273438 37.941406 23.347656 39.476562 23.363281 C 42.800781 23.441406 46.128906 23.328125 49.453125 23.191406 C 50.238281 23.234375 50.734375 22.691406 50.734375 21.9375 C 50.984375 19.964844 51.058594 17.984375 51.070312 16 C 53.945312 15.96875 56.816406 15.851562 59.695312 15.867188 C 62.714844 15.976562 65.777344 15.984375 68.820312 16.085938 C 72.007812 16.15625 75.210938 16.261719 78.398438 16.5 C 80.359375 16.628906 82.304688 16.957031 84.265625 17.105469 C 84.160156 17.558594 84.25 18.113281 84.402344 18.507812 C 84.496094 20.0625 84.558594 21.617188 84.597656 23.179688 C 84.75 28.816406 84.21875 34.4375 84.09375 40.066406 C 83.691406 48.109375 83.367188 56.148438 83.269531 64.203125 C 83.265625 70.125 82.921875 76.042969 83.082031 81.960938 C 83.117188 83.957031 83.023438 85.949219 83.039062 87.941406 C 83.050781 91.230469 83.425781 94.503906 83.582031 97.785156 C 83.585938 97.875 83.601562 97.964844 83.628906 98.050781 C 82.460938 98.203125 81.269531 98.152344 80.078125 98.105469 C 79.378906 98.074219 78.679688 98.046875 77.988281 98.058594 C 73.402344 97.972656 68.847656 98.007812 64.246094 97.867188 C 60.933594 97.992188 57.636719 98.433594 54.324219 98.5625 C 52.292969 98.609375 50.261719 98.628906 48.226562 98.628906 C 47.28125 98.628906 46.339844 98.625 45.394531 98.617188 Z M 45.398438 98.621094 "/><path style=" stroke:none;fill-rule:nonzero;fill:#f0df8c;fill-opacity:1;" d="M 38.140625 21.417969 C 38.390625 19.582031 38.449219 17.734375 38.433594 15.882812 C 38.433594 15.84375 38.433594 15.808594 38.433594 15.769531 C 38.429688 15.347656 38.421875 14.925781 38.410156 14.503906 C 38.40625 14.347656 38.402344 14.1875 38.398438 14.03125 C 38.289062 9.957031 38.023438 5.878906 38.902344 1.867188 C 42.335938 1.949219 45.746094 2.015625 49.183594 2.179688 C 49.292969 5.304688 49.1875 8.4375 49.203125 11.5625 C 49.195312 12.429688 49.199219 13.289062 49.203125 14.148438 C 49.207031 14.769531 49.210938 15.386719 49.210938 16.007812 C 49.203125 17.785156 49.15625 19.5625 48.933594 21.363281 C 48.417969 21.386719 47.902344 21.394531 47.386719 21.414062 C 46.53125 21.441406 45.675781 21.472656 44.820312 21.492188 C 43.648438 21.507812 42.480469 21.542969 41.3125 21.542969 C 40.253906 21.542969 39.199219 21.515625 38.140625 21.421875 Z M 38.140625 21.417969 "/><path style=" stroke:none;fill-rule:nonzero;fill:#ffffff;fill-opacity:1;" d="M 42.707031 82.902344 C 38.523438 81.007812 35.503906 77.316406 32.0625 74.378906 C 28.363281 70.863281 24.929688 67.058594 22.296875 62.667969 C 20.457031 59.609375 18.773438 56.390625 18.011719 52.875 C 15.554688 43.777344 23.332031 38.238281 31.773438 40.089844 C 37.078125 41.1875 41.066406 45.671875 43.652344 50.195312 C 46.121094 44.714844 50.136719 38.441406 56.703125 37.902344 C 66.921875 36.828125 68.109375 46.671875 67.113281 54.507812 C 64.902344 63.15625 57.445312 71.386719 50.933594 77.257812 C 49.191406 78.800781 47.484375 80.402344 45.601562 81.769531 C 45.058594 82.152344 44.480469 82.617188 43.800781 82.679688 C 43.601562 82.863281 43.332031 82.976562 43.0625 82.976562 C 42.941406 82.976562 42.820312 82.953125 42.703125 82.902344 Z M 42.707031 82.902344 "/><g clip-rule="nonzero" clip-path="url(#fd9dc5a462)"><path style=" stroke:none;fill-rule:nonzero;fill:#856962;fill-opacity:1;" d="M 86.199219 17.6875 C 86.195312 17.480469 86.148438 17.265625 86.078125 17.0625 C 86.351562 16.769531 86.476562 16.332031 86.222656 15.964844 C 85.992188 15.644531 85.6875 15.433594 85.300781 15.347656 C 80.519531 14.820312 75.730469 14.320312 70.910156 14.292969 C 67.777344 14.195312 64.601562 14.117188 61.449219 14.070312 C 59.089844 13.953125 56.730469 14.015625 54.371094 14.078125 C 53.265625 14.105469 52.164062 14.113281 51.058594 14.125 C 51.054688 13.722656 51.054688 13.320312 51.046875 12.917969 C 51.070312 10.984375 51.070312 9.046875 51.066406 7.113281 C 51.019531 5.113281 51.28125 3.050781 50.875 1.085938 C 50.605469 0.375 49.699219 0.355469 49.058594 0.316406 C 47.089844 0.210938 45.261719 0.191406 43.246094 0.113281 C 42.347656 0.0859375 41.410156 0.0742188 40.507812 0.0546875 C 39.71875 0.0390625 38.929688 0.0117188 38.136719 0 C 37.632812 -0.00390625 37.226562 0.46875 37.242188 0.953125 C 36.148438 5.210938 36.386719 9.625 36.527344 14 C 30.894531 13.90625 25.261719 13.835938 19.628906 14 C 15.703125 14.183594 11.78125 14.417969 7.855469 14.585938 C 5.902344 14.660156 3.945312 14.703125 1.988281 14.75 C 1.328125 14.667969 0.796875 15.316406 0.976562 15.945312 C 0.996094 16.003906 1.027344 16.035156 1.054688 16.082031 C 1.054688 16.144531 1.042969 16.199219 1.058594 16.265625 C 1.394531 19.40625 1.207031 22.605469 1.050781 25.753906 C 0.894531 29.757812 0.773438 33.765625 0.671875 37.769531 C 0.476562 45.703125 0.917969 53.636719 0.808594 61.574219 C 0.609375 67.488281 0.351562 73.40625 0.585938 79.324219 C 0.761719 82.320312 0.882812 85.324219 1.042969 88.320312 C 1.335938 91.875 1.542969 95.433594 1.285156 99.003906 C 1.28125 99.511719 1.710938 99.933594 2.214844 99.933594 C 2.527344 99.933594 2.792969 99.761719 2.964844 99.519531 C 3.125 99.503906 3.289062 99.480469 3.445312 99.460938 C 7.675781 98.980469 11.863281 99.355469 16.117188 99.425781 C 25.75 99.679688 35.445312 100.019531 45.082031 100.46875 C 46.578125 100.480469 48.078125 100.5 49.574219 100.5 C 52.078125 100.5 54.582031 100.449219 57.078125 100.257812 C 61.292969 99.878906 65.363281 99.554688 69.605469 99.875 C 72.414062 99.875 75.226562 99.8125 78.035156 99.917969 C 78.6875 99.914062 79.351562 99.9375 80.015625 99.960938 C 81.4375 100.011719 82.875 100.058594 84.265625 99.859375 C 85.324219 99.773438 85.597656 98.867188 85.269531 98.324219 C 85.503906 97.9375 85.441406 97.339844 85.398438 96.855469 C 85.300781 95.304688 85.171875 93.757812 85.0625 92.210938 C 84.75 87.414062 85.015625 82.449219 84.878906 77.628906 C 85.09375 69.640625 85.148438 61.648438 85.34375 53.660156 C 85.542969 47.660156 85.945312 41.664062 86.113281 35.660156 C 86.359375 30.535156 86.648438 25.410156 86.355469 20.28125 C 86.320312 19.417969 86.273438 18.550781 86.195312 17.691406 Z M 38.902344 1.867188 C 42.335938 1.945312 45.746094 2.015625 49.183594 2.179688 C 49.292969 5.304688 49.1875 8.4375 49.207031 11.5625 C 49.167969 14.847656 49.339844 18.0625 48.933594 21.359375 C 48.421875 21.382812 47.902344 21.394531 47.390625 21.410156 C 46.535156 21.441406 45.675781 21.46875 44.820312 21.492188 C 42.589844 21.523438 40.371094 21.617188 38.140625 21.417969 C 38.390625 19.582031 38.441406 17.734375 38.425781 15.882812 L 38.4375 15.882812 C 38.429688 15.265625 38.417969 14.648438 38.398438 14.03125 C 38.289062 9.957031 38.023438 5.878906 38.90625 1.867188 Z M 80.085938 98.105469 C 79.386719 98.078125 78.6875 98.046875 77.992188 98.0625 C 73.410156 97.976562 68.851562 98.007812 64.25 97.867188 C 60.9375 97.996094 57.640625 98.433594 54.328125 98.566406 C 51.355469 98.636719 48.375 98.640625 45.402344 98.625 C 36.574219 98.257812 27.742188 97.828125 18.90625 97.671875 C 13.722656 97.574219 8.398438 97.0625 3.203125 97.628906 C 3.21875 97.3125 3.234375 96.996094 3.242188 96.679688 C 3.386719 93.9375 3.09375 91.199219 2.914062 88.460938 C 2.734375 85.0625 2.566406 81.644531 2.402344 78.242188 C 2.292969 73.269531 2.390625 68.300781 2.625 63.332031 C 2.800781 57.394531 2.574219 51.453125 2.480469 45.515625 C 2.441406 39.5625 2.632812 33.601562 2.832031 27.652344 C 2.992188 24.195312 3.21875 20.734375 3.019531 17.273438 C 3.003906 17.042969 2.992188 16.8125 2.96875 16.585938 C 3 16.585938 3.039062 16.582031 3.070312 16.582031 C 4.34375 16.53125 5.621094 16.527344 6.894531 16.480469 C 11.601562 16.316406 16.300781 16.003906 21.007812 15.800781 C 26.195312 15.730469 31.390625 15.789062 36.582031 15.863281 C 36.59375 16.464844 36.601562 17.066406 36.597656 17.671875 C 36.542969 18.832031 36.429688 19.988281 36.308594 21.144531 C 35.808594 23.289062 37.96875 23.351562 39.503906 23.367188 L 39.476562 23.367188 C 40.214844 23.382812 40.949219 23.390625 41.683594 23.390625 C 44.277344 23.390625 46.867188 23.296875 49.457031 23.195312 C 50.242188 23.234375 50.738281 22.695312 50.738281 21.9375 C 50.988281 19.957031 51.058594 17.96875 51.066406 15.980469 C 52.1875 15.96875 53.3125 15.960938 54.433594 15.9375 C 56.1875 15.898438 57.945312 15.855469 59.699219 15.867188 C 62.71875 15.976562 65.777344 15.984375 68.824219 16.085938 C 72.011719 16.15625 75.210938 16.261719 78.402344 16.5 C 80.363281 16.632812 82.3125 16.945312 84.277344 17.09375 C 84.167969 17.550781 84.25 18.113281 84.40625 18.507812 C 84.503906 20.066406 84.5625 21.621094 84.601562 23.183594 C 84.753906 28.816406 84.226562 34.441406 84.097656 40.070312 C 83.695312 48.113281 83.371094 56.152344 83.273438 64.207031 C 83.269531 70.125 82.925781 76.046875 83.085938 81.964844 C 83.121094 83.960938 83.027344 85.953125 83.042969 87.945312 C 83.054688 91.234375 83.429688 94.507812 83.585938 97.789062 C 83.589844 97.878906 83.617188 97.957031 83.640625 98.039062 C 82.472656 98.195312 81.277344 98.15625 80.085938 98.109375 Z M 80.085938 98.105469 "/></g></g></svg>