<svg xmlns="http://www.w3.org/2000/svg" xmlns:xlink="http://www.w3.org/1999/xlink" width="290" zoomAndPan="magnify" viewBox="0 0 217.5 323.999988" height="432" preserveAspectRatio="xMidYMid meet" version="1.2"><defs><clipPath id="63b14aec8b"><path d="M 105 0.949219 L 144 0.949219 L 144 35 L 105 35 Z M 105 0.949219 "/></clipPath></defs><g id="76fc8f16c2"><path style=" stroke:none;fill-rule:evenodd;fill:#dc7d66;fill-opacity:1;" d="M 105.925781 10.914062 C 108.109375 9.8125 110.089844 6.097656 111.550781 4.273438 C 111.902344 3.839844 113.457031 2.507812 113.457031 1.914062 C 113.457031 1.449219 114.425781 2.019531 114.90625 2.035156 C 116.039062 2.070312 117.164062 2.058594 118.289062 2.085938 C 119.472656 2.117188 120.679688 2.1875 121.816406 2.535156 C 123.988281 3.199219 125.925781 4.570312 127.785156 5.804688 C 132.152344 8.703125 136.496094 12.058594 139.578125 16.253906 C 140.691406 17.765625 143.035156 20.601562 142.800781 22.710938 C 142.644531 24.117188 140.074219 26.253906 139.230469 27.292969 C 137.832031 29.007812 136.308594 30.605469 134.75 32.179688 C 134.578125 32.351562 133.589844 33.597656 133.3125 33.597656 C 132.980469 33.597656 131.855469 32.410156 131.597656 32.21875 C 130.003906 31.039062 128.421875 29.84375 126.808594 28.683594 C 121.082031 24.5625 115.140625 20.726562 109.355469 16.667969 Z M 105.925781 10.914062 "/><g clip-rule="nonzero" clip-path="url(#63b14aec8b)"><path style=" stroke:none;fill-rule:evenodd;fill:#8b3f05;fill-opacity:1;" d="M 105.925781 11.4375 L 105.617188 10.328125 C 106.238281 10.007812 106.828125 9.4375 107.394531 8.773438 C 108.753906 7.191406 109.964844 5.0625 110.949219 3.816406 C 111.226562 3.460938 112.359375 2.492188 112.65625 1.867188 C 112.65625 1.863281 112.664062 1.863281 112.664062 1.859375 C 112.671875 1.53125 112.824219 1.324219 113 1.175781 C 113.160156 1.042969 113.386719 0.953125 113.671875 0.953125 C 113.863281 0.953125 114.132812 1.011719 114.417969 1.101562 C 114.601562 1.15625 114.796875 1.242188 114.933594 1.246094 L 118.316406 1.269531 C 119.058594 1.28125 119.804688 1.3125 120.546875 1.410156 C 121.0625 1.476562 121.570312 1.578125 122.074219 1.726562 C 123.007812 2.007812 123.894531 2.40625 124.753906 2.867188 C 125.992188 3.527344 127.15625 4.324219 128.296875 5.070312 C 130.511719 6.535156 132.738281 8.09375 134.761719 9.859375 C 136.8125 11.648438 138.660156 13.640625 140.195312 15.824219 C 140.84375 16.757812 141.921875 18.179688 142.636719 19.628906 C 143.171875 20.714844 143.511719 21.816406 143.390625 22.773438 C 143.332031 23.3125 142.988281 23.953125 142.492188 24.605469 C 141.625 25.75 140.292969 26.972656 139.730469 27.683594 C 139.042969 28.5625 138.316406 29.414062 137.574219 30.25 C 136.832031 31.082031 136.070312 31.894531 135.296875 32.699219 C 135.144531 32.855469 134.390625 33.820312 133.980469 34.132812 C 133.714844 34.328125 133.464844 34.378906 133.3125 34.378906 C 133.128906 34.382812 132.789062 34.28125 132.425781 34.023438 C 131.957031 33.683594 131.28125 33.011719 131.089844 32.875 L 126.265625 29.398438 C 121.722656 26.054688 117.039062 22.90625 112.425781 19.652344 C 111.273438 18.835938 110.121094 18.011719 108.976562 17.179688 C 108.90625 17.125 108.84375 17.058594 108.800781 16.984375 L 105.464844 11.175781 Z M 106.742188 11.214844 C 107.613281 12.628906 109.839844 16.230469 109.839844 16.230469 C 113.894531 18.984375 118.03125 21.617188 122.109375 24.347656 C 123.867188 25.53125 125.621094 26.742188 127.355469 27.972656 L 132.113281 31.566406 C 132.261719 31.679688 132.910156 32.273438 133.273438 32.613281 C 133.597656 32.277344 134.101562 31.75 134.191406 31.660156 C 134.988281 30.894531 135.769531 30.121094 136.523438 29.332031 C 137.285156 28.542969 138.019531 27.738281 138.726562 26.90625 C 139.300781 26.214844 140.671875 25.046875 141.546875 23.917969 C 141.894531 23.464844 142.167969 23.03125 142.214844 22.652344 C 142.28125 21.890625 141.941406 21.039062 141.484375 20.199219 C 140.738281 18.84375 139.632812 17.542969 138.964844 16.679688 C 137.71875 15.0625 136.269531 13.597656 134.722656 12.21875 C 134.027344 11.601562 133.304688 11.003906 132.585938 10.417969 C 130.863281 9.039062 129.078125 7.742188 127.269531 6.539062 C 126.179688 5.808594 125.066406 5.023438 123.886719 4.371094 C 123.140625 3.957031 122.367188 3.59375 121.550781 3.339844 C 121.148438 3.210938 120.726562 3.121094 120.300781 3.058594 C 119.632812 2.960938 118.945312 2.925781 118.269531 2.90625 L 114.886719 2.824219 C 114.695312 2.816406 114.324219 2.714844 114.039062 2.632812 C 113.988281 2.71875 113.933594 2.808594 113.867188 2.898438 C 113.40625 3.554688 112.433594 4.402344 112.160156 4.734375 C 111.140625 5.976562 109.878906 8.097656 108.476562 9.664062 C 107.914062 10.289062 107.335938 10.828125 106.742188 11.214844 Z M 106.742188 11.214844 "/></g><path style=" stroke:none;fill-rule:evenodd;fill:#f1d7be;fill-opacity:1;" d="M 8.265625 83.4375 C 32.691406 52.796875 53.917969 43.375 72.855469 49.0625 L 103.398438 11.328125 C 113.695312 6.75 135.5625 18.515625 136.515625 33.351562 L 104.21875 69.972656 C 114.683594 87.785156 101.03125 120.992188 88.257812 138.582031 Z M 8.265625 83.4375 "/><path style=" stroke:none;fill-rule:evenodd;fill:#8b3f05;fill-opacity:1;" d="M 8.292969 84.097656 C 8.277344 84.097656 8.273438 84.097656 8.265625 84.097656 L 8.265625 84.078125 L 7.953125 83.863281 L 8.265625 83.960938 L 7.730469 83.03125 C 19.964844 67.597656 31.429688 57.5 42.203125 51.960938 C 52.941406 46.4375 63.023438 45.410156 72.539062 48.09375 L 102.664062 10.769531 C 102.757812 10.65625 102.875 10.566406 103.007812 10.507812 C 105.601562 9.355469 108.878906 9.148438 112.378906 9.765625 C 116.535156 10.492188 121.023438 12.363281 125.019531 15.046875 C 131.585938 19.453125 136.828125 26.050781 137.242188 33.308594 C 137.257812 33.492188 137.195312 33.675781 137.070312 33.8125 C 137.070312 33.8125 128.910156 42.894531 120.816406 52.039062 C 113.644531 60.148438 106.53125 68.304688 105.007812 70.046875 C 109.34375 77.679688 109.488281 88.011719 107.199219 98.757812 C 105.398438 107.234375 102.101562 115.972656 98.191406 123.796875 C 95.324219 129.53125 92.121094 134.773438 88.992188 139.089844 C 88.851562 139.28125 88.640625 139.410156 88.410156 139.449219 C 88.171875 139.488281 87.925781 139.433594 87.734375 139.300781 Z M 9.152344 83.40625 L 88.03125 137.359375 C 90.945312 133.253906 93.882812 128.34375 96.5625 123.027344 C 100.449219 115.332031 103.789062 106.769531 105.640625 98.4375 C 107.984375 87.894531 107.980469 77.738281 103.652344 70.289062 C 103.519531 70.054688 103.542969 69.765625 103.722656 69.5625 C 103.722656 69.5625 111.855469 60.457031 119.917969 51.289062 C 127.238281 42.964844 134.496094 34.589844 135.769531 33.117188 C 135.171875 26.425781 130.164062 20.457031 124.046875 16.4375 C 120.234375 13.9375 115.988281 12.199219 112.0625 11.53125 C 109.050781 11.019531 106.238281 11.125 103.988281 12.066406 L 73.539062 49.582031 C 73.320312 49.855469 72.941406 49.96875 72.605469 49.867188 C 63.320312 47.058594 53.480469 47.980469 42.945312 53.335938 C 32.394531 58.699219 21.171875 68.484375 9.152344 83.40625 Z M 9.152344 83.40625 "/><path style=" stroke:none;fill-rule:nonzero;fill:#dc7d66;fill-opacity:1;" d="M 89.429688 136.585938 C 89.199219 136.914062 88.902344 137.195312 88.539062 137.4375 C 88.175781 137.675781 87.753906 137.871094 87.265625 138.023438 C 86.777344 138.175781 86.230469 138.28125 85.621094 138.339844 C 85.011719 138.402344 84.347656 138.417969 83.625 138.386719 C 82.902344 138.355469 82.125 138.277344 81.292969 138.15625 C 80.460938 138.035156 79.578125 137.871094 78.644531 137.65625 C 77.714844 137.445312 76.738281 137.191406 75.714844 136.890625 C 74.691406 136.59375 73.628906 136.25 72.523438 135.867188 C 71.417969 135.484375 70.28125 135.058594 69.105469 134.59375 C 67.929688 134.128906 66.726562 133.625 65.492188 133.082031 C 64.257812 132.542969 63 131.964844 61.71875 131.351562 C 60.433594 130.738281 59.136719 130.089844 57.820312 129.414062 C 56.503906 128.734375 55.171875 128.023438 53.835938 127.289062 C 52.496094 126.550781 51.152344 125.785156 49.800781 124.996094 C 48.453125 124.207031 47.105469 123.394531 45.761719 122.5625 C 44.414062 121.726562 43.078125 120.875 41.75 120.003906 C 40.417969 119.132812 39.105469 118.25 37.804688 117.351562 C 36.503906 116.453125 35.226562 115.546875 33.96875 114.628906 C 32.710938 113.710938 31.480469 112.789062 30.273438 111.859375 C 29.070312 110.933594 27.898438 110.003906 26.757812 109.074219 C 25.621094 108.144531 24.519531 107.21875 23.457031 106.296875 C 22.394531 105.375 21.375 104.460938 20.398438 103.558594 C 19.425781 102.652344 18.496094 101.757812 17.617188 100.878906 C 16.738281 100 15.910156 99.132812 15.132812 98.289062 C 14.359375 97.441406 13.640625 96.613281 12.976562 95.808594 C 12.3125 95.003906 11.707031 94.226562 11.164062 93.46875 C 10.617188 92.714844 10.136719 91.984375 9.714844 91.289062 C 9.292969 90.589844 8.933594 89.921875 8.640625 89.285156 C 8.347656 88.652344 8.117188 88.050781 7.957031 87.484375 C 7.792969 86.917969 7.695312 86.390625 7.664062 85.898438 C 7.632812 85.410156 7.667969 84.957031 7.769531 84.546875 C 7.871094 84.136719 8.035156 83.765625 8.269531 83.441406 C 8.503906 83.113281 8.800781 82.828125 9.160156 82.589844 C 9.523438 82.347656 9.945312 82.152344 10.433594 82 C 10.921875 81.851562 11.46875 81.742188 12.078125 81.683594 C 12.6875 81.621094 13.351562 81.609375 14.074219 81.636719 C 14.800781 81.667969 15.578125 81.746094 16.410156 81.867188 C 17.238281 81.988281 18.121094 82.15625 19.054688 82.367188 C 19.984375 82.578125 20.960938 82.832031 21.984375 83.132812 C 23.007812 83.433594 24.070312 83.773438 25.175781 84.15625 C 26.28125 84.542969 27.421875 84.964844 28.59375 85.429688 C 29.769531 85.894531 30.976562 86.398438 32.210938 86.941406 C 33.445312 87.484375 34.703125 88.0625 35.984375 88.675781 C 37.265625 89.289062 38.5625 89.933594 39.882812 90.613281 C 41.199219 91.292969 42.527344 92 43.867188 92.738281 C 45.203125 93.476562 46.550781 94.238281 47.898438 95.027344 C 49.246094 95.816406 50.59375 96.628906 51.941406 97.464844 C 53.285156 98.296875 54.621094 99.148438 55.953125 100.019531 C 57.28125 100.890625 58.59375 101.773438 59.894531 102.671875 C 61.195312 103.570312 62.472656 104.480469 63.730469 105.398438 C 64.988281 106.3125 66.222656 107.238281 67.425781 108.164062 C 68.628906 109.09375 69.800781 110.019531 70.941406 110.949219 C 72.078125 111.878906 73.179688 112.804688 74.242188 113.726562 C 75.304688 114.648438 76.324219 115.5625 77.300781 116.46875 C 78.277344 117.371094 79.203125 118.265625 80.082031 119.144531 C 80.964844 120.027344 81.792969 120.890625 82.566406 121.738281 C 83.339844 122.582031 84.0625 123.410156 84.722656 124.214844 C 85.386719 125.019531 85.992188 125.800781 86.535156 126.554688 C 87.082031 127.3125 87.566406 128.039062 87.988281 128.738281 C 88.40625 129.4375 88.765625 130.101562 89.058594 130.738281 C 89.351562 131.375 89.582031 131.972656 89.746094 132.539062 C 89.90625 133.105469 90.003906 133.632812 90.035156 134.125 C 90.066406 134.617188 90.03125 135.066406 89.929688 135.476562 C 89.832031 135.890625 89.664062 136.257812 89.429688 136.585938 Z M 89.429688 136.585938 "/><path style=" stroke:none;fill-rule:evenodd;fill:#8b3f05;fill-opacity:1;" d="M 56.246094 99.582031 L 56.328125 99.46875 C 68.429688 107.316406 78.402344 115.675781 84.453125 122.601562 C 87.542969 126.140625 89.609375 129.328125 90.472656 131.890625 C 91.191406 134.039062 91.066406 135.800781 90.171875 137.082031 C 89.273438 138.351562 87.617188 139.109375 85.292969 139.265625 C 82.496094 139.449219 78.660156 138.800781 74.105469 137.34375 C 70.96875 136.34375 67.476562 134.960938 63.765625 133.246094 C 56.886719 130.058594 49.214844 125.707031 41.410156 120.480469 C 38.25 118.425781 35.242188 116.332031 32.40625 114.257812 C 24.367188 108.375 17.710938 102.53125 13.226562 97.425781 C 10.117188 93.890625 8.039062 90.699219 7.191406 88.140625 C 6.476562 85.984375 6.609375 84.210938 7.527344 82.941406 C 8.425781 81.675781 10.074219 80.921875 12.402344 80.785156 C 15.1875 80.621094 19.011719 81.308594 23.542969 82.777344 C 32.472656 85.671875 44.210938 91.574219 56.246094 99.582031 Z M 55.566406 100.5625 L 55.644531 100.449219 C 45.734375 94.070312 36.023438 89.089844 27.957031 86 C 22.332031 83.84375 17.523438 82.609375 14.007812 82.484375 C 11.585938 82.390625 9.828125 82.773438 9.003906 83.933594 C 8.191406 85.097656 8.484375 86.800781 9.464844 88.921875 C 10.894531 92.023438 13.847656 95.875 17.992188 100.113281 C 22.867188 105.101562 29.339844 110.636719 36.933594 116.027344 C 38.585938 117.199219 40.3125 118.367188 42.074219 119.523438 C 52.003906 125.878906 61.730469 130.792969 69.785156 133.894531 C 75.390625 136.054688 80.179688 137.347656 83.691406 137.496094 C 86.09375 137.597656 87.851562 137.234375 88.6875 136.085938 C 89.511719 134.925781 89.226562 133.207031 88.25 131.082031 C 86.820312 127.976562 83.847656 124.136719 79.691406 119.910156 C 73.730469 113.859375 65.371094 107.050781 55.566406 100.5625 Z M 55.566406 100.5625 "/><path style=" stroke:none;fill-rule:evenodd;fill:#f1d7be;fill-opacity:1;" d="M 112.804688 60.238281 L 161.339844 107.449219 L 171.625 98.167969 L 122.425781 50.003906 Z M 112.804688 60.238281 "/><path style=" stroke:none;fill-rule:evenodd;fill:#8b3f05;fill-opacity:1;" d="M 112.40625 59.792969 L 112.40625 59.886719 L 121.929688 49.558594 C 122.054688 49.425781 122.226562 49.347656 122.414062 49.34375 C 122.597656 49.339844 122.777344 49.410156 122.910156 49.539062 C 122.910156 49.539062 130.824219 57.09375 140.273438 66.253906 C 142.683594 68.585938 145.183594 71.015625 147.667969 73.46875 C 155.117188 80.828125 162.457031 88.289062 167.136719 92.933594 C 170.15625 95.921875 172.046875 97.761719 172.046875 97.761719 C 172.160156 97.871094 172.226562 98.023438 172.21875 98.179688 C 172.21875 98.339844 172.148438 98.488281 172.027344 98.59375 L 161.875 108.011719 C 161.566406 108.292969 161.082031 108.28125 160.785156 107.992188 C 160.785156 107.992188 157.824219 105.234375 153.410156 100.996094 C 151.265625 98.9375 148.792969 96.523438 146.132812 93.921875 C 131.863281 79.980469 112.320312 60.707031 112.320312 60.707031 L 112.425781 60.707031 C 112.222656 60.457031 112.214844 60.054688 112.40625 59.792969 Z M 113.648438 60.125 C 116.417969 62.773438 134.246094 79.882812 147.433594 92.652344 C 150.109375 95.242188 152.597656 97.648438 154.707031 99.734375 C 157.964844 102.945312 160.375 105.363281 161.378906 106.382812 C 161.378906 106.382812 170.761719 98.144531 170.761719 98.144531 C 170.035156 97.433594 168.453125 95.886719 166.269531 93.773438 C 161.523438 89.1875 153.902344 82 146.382812 74.707031 C 143.882812 72.277344 141.398438 69.824219 139.015625 67.472656 C 131.054688 59.59375 124.277344 52.808594 122.4375 50.964844 Z M 113.648438 60.125 "/><path style=" stroke:none;fill-rule:evenodd;fill:#f1d7be;fill-opacity:1;" d="M 161.339844 107.449219 L 171.5625 114.597656 L 178.070312 107.34375 L 171.722656 98.039062 Z M 161.339844 107.449219 "/><path style=" stroke:none;fill-rule:evenodd;fill:#8b3f05;fill-opacity:1;" d="M 160.976562 106.964844 L 160.976562 107.066406 C 160.976562 107.066406 165.027344 103.085938 168.023438 100.25 C 169.738281 98.632812 171.109375 97.394531 171.109375 97.394531 C 171.304688 97.21875 171.570312 97.132812 171.835938 97.164062 C 172.101562 97.195312 172.332031 97.335938 172.476562 97.550781 C 172.476562 97.550781 175.449219 102.441406 177.289062 105.167969 C 178.03125 106.265625 178.613281 106.992188 178.613281 106.992188 C 178.777344 107.230469 178.75 107.546875 178.558594 107.761719 C 178.558594 107.761719 176.632812 110.226562 174.859375 112.285156 C 173.515625 113.855469 172.253906 115.179688 172.253906 115.179688 C 171.941406 115.523438 171.417969 115.582031 171.035156 115.316406 L 160.941406 107.984375 L 161.027344 107.984375 C 160.894531 107.867188 160.816406 107.6875 160.804688 107.488281 C 160.796875 107.292969 160.855469 107.097656 160.976562 106.964844 Z M 162.332031 107.308594 C 162.332031 107.308594 171.398438 113.40625 171.398438 113.40625 C 171.875 112.859375 172.628906 112.003906 173.46875 111.105469 C 174.898438 109.574219 176.5625 107.921875 177.25 107.246094 C 177.042969 106.90625 176.71875 106.394531 176.308594 105.800781 C 174.941406 103.796875 172.691406 100.792969 171.597656 99.351562 C 171.027344 99.863281 170.175781 100.621094 169.195312 101.472656 C 166.792969 103.558594 163.648438 106.207031 162.332031 107.308594 Z M 162.332031 107.308594 "/><path style=" stroke:none;fill-rule:nonzero;fill:#f1d7be;fill-opacity:1;" d="M 215.234375 287.316406 C 215.234375 287.792969 215.144531 288.273438 214.972656 288.75 C 214.796875 289.226562 214.539062 289.699219 214.191406 290.167969 C 213.84375 290.640625 213.414062 291.105469 212.898438 291.5625 C 212.382812 292.019531 211.785156 292.472656 211.105469 292.914062 C 210.421875 293.355469 209.664062 293.789062 208.828125 294.210938 C 207.988281 294.636719 207.078125 295.046875 206.089844 295.445312 C 205.101562 295.84375 204.046875 296.226562 202.917969 296.597656 C 201.789062 296.96875 200.597656 297.324219 199.34375 297.660156 C 198.085938 298 196.769531 298.320312 195.398438 298.625 C 194.023438 298.929688 192.597656 299.214844 191.121094 299.480469 C 189.644531 299.746094 188.121094 299.992188 186.554688 300.21875 C 184.988281 300.445312 183.382812 300.648438 181.742188 300.832031 C 180.101562 301.015625 178.429688 301.175781 176.726562 301.316406 C 175.027344 301.457031 173.304688 301.570312 171.5625 301.664062 C 169.820312 301.757812 168.066406 301.828125 166.296875 301.875 C 164.527344 301.921875 162.757812 301.945312 160.980469 301.945312 C 159.203125 301.945312 157.429688 301.921875 155.660156 301.875 C 153.894531 301.828125 152.136719 301.757812 150.394531 301.664062 C 148.652344 301.570312 146.929688 301.457031 145.230469 301.316406 C 143.53125 301.175781 141.859375 301.015625 140.214844 300.832031 C 138.574219 300.648438 136.96875 300.445312 135.402344 300.21875 C 133.835938 299.992188 132.3125 299.746094 130.835938 299.480469 C 129.359375 299.214844 127.933594 298.929688 126.558594 298.625 C 125.1875 298.320312 123.871094 298 122.613281 297.660156 C 121.359375 297.324219 120.167969 296.96875 119.039062 296.597656 C 117.914062 296.226562 116.855469 295.84375 115.867188 295.445312 C 114.878906 295.046875 113.96875 294.636719 113.128906 294.210938 C 112.292969 293.789062 111.535156 293.355469 110.855469 292.914062 C 110.175781 292.472656 109.578125 292.019531 109.058594 291.5625 C 108.542969 291.105469 108.113281 290.640625 107.765625 290.167969 C 107.421875 289.699219 107.160156 289.226562 106.984375 288.75 C 106.8125 288.273438 106.722656 287.792969 106.722656 287.316406 C 106.722656 286.835938 106.8125 286.359375 106.984375 285.882812 C 107.160156 285.402344 107.421875 284.929688 107.765625 284.460938 C 108.113281 283.992188 108.542969 283.527344 109.0625 283.066406 C 109.578125 282.609375 110.175781 282.160156 110.855469 281.714844 C 111.535156 281.273438 112.292969 280.839844 113.128906 280.417969 C 113.96875 279.996094 114.878906 279.585938 115.867188 279.1875 C 116.855469 278.789062 117.914062 278.402344 119.039062 278.035156 C 120.167969 277.664062 121.359375 277.308594 122.613281 276.96875 C 123.871094 276.628906 125.1875 276.308594 126.558594 276.003906 C 127.933594 275.699219 129.359375 275.414062 130.835938 275.148438 C 132.3125 274.882812 133.835938 274.636719 135.402344 274.410156 C 136.96875 274.1875 138.574219 273.980469 140.214844 273.796875 C 141.859375 273.613281 143.53125 273.453125 145.230469 273.3125 C 146.929688 273.175781 148.652344 273.058594 150.394531 272.964844 C 152.136719 272.871094 153.894531 272.800781 155.660156 272.753906 C 157.429688 272.707031 159.203125 272.683594 160.980469 272.683594 C 162.757812 272.683594 164.527344 272.707031 166.296875 272.753906 C 168.066406 272.800781 169.820312 272.871094 171.5625 272.964844 C 173.304688 273.058594 175.027344 273.175781 176.726562 273.3125 C 178.429688 273.453125 180.101562 273.613281 181.742188 273.796875 C 183.382812 273.980469 184.988281 274.1875 186.554688 274.410156 C 188.121094 274.636719 189.644531 274.882812 191.121094 275.148438 C 192.597656 275.414062 194.023438 275.699219 195.398438 276.003906 C 196.769531 276.308594 198.085938 276.628906 199.34375 276.96875 C 200.597656 277.308594 201.789062 277.664062 202.917969 278.03125 C 204.046875 278.402344 205.101562 278.789062 206.089844 279.1875 C 207.078125 279.585938 207.988281 279.996094 208.828125 280.417969 C 209.664062 280.839844 210.421875 281.273438 211.105469 281.714844 C 211.785156 282.160156 212.382812 282.609375 212.898438 283.066406 C 213.414062 283.527344 213.84375 283.992188 214.191406 284.460938 C 214.539062 284.929688 214.796875 285.402344 214.972656 285.882812 C 215.144531 286.359375 215.234375 286.835938 215.234375 287.316406 Z M 215.234375 287.316406 "/><path style=" stroke:none;fill-rule:evenodd;fill:#8b3f05;fill-opacity:1;" d="M 160.980469 272.160156 L 160.980469 272.023438 C 177.304688 271.957031 191.972656 273.839844 201.988281 276.875 C 207.074219 278.414062 210.976562 280.269531 213.34375 282.289062 C 215.1875 283.863281 216.128906 285.570312 216.136719 287.316406 C 216.144531 289.0625 215.199219 290.777344 213.363281 292.363281 C 211.003906 294.398438 207.109375 296.28125 202.007812 297.832031 C 198.496094 298.90625 194.398438 299.828125 189.855469 300.5625 C 181.472656 301.914062 171.570312 302.621094 160.980469 302.523438 C 156.714844 302.535156 152.566406 302.410156 148.578125 302.179688 C 137.308594 301.535156 127.367188 299.992188 119.960938 297.769531 C 114.871094 296.242188 110.953125 294.390625 108.59375 292.363281 C 106.75 290.78125 105.816406 289.0625 105.820312 287.316406 C 105.828125 285.570312 106.769531 283.863281 108.613281 282.292969 C 110.980469 280.277344 114.890625 278.433594 119.976562 276.90625 C 129.992188 273.898438 144.660156 272.054688 160.980469 272.160156 Z M 160.980469 273.34375 L 160.980469 273.207031 C 147.667969 273.296875 135.484375 274.679688 126.082031 276.894531 C 119.527344 278.4375 114.335938 280.375 111.085938 282.582031 C 108.902344 284.070312 107.621094 285.628906 107.625 287.316406 C 107.625 289 108.921875 290.542969 111.113281 292.019531 C 114.363281 294.214844 119.539062 296.15625 126.089844 297.699219 C 133.808594 299.519531 143.390625 300.824219 153.9375 301.238281 C 156.242188 301.332031 158.59375 301.367188 160.980469 301.371094 C 174.277344 301.25 186.4375 299.804688 195.839844 297.605469 C 202.390625 296.078125 207.589844 294.195312 210.835938 292.015625 C 213.027344 290.542969 214.324219 289 214.324219 287.316406 C 214.332031 285.628906 213.050781 284.070312 210.855469 282.585938 C 207.617188 280.386719 202.417969 278.464844 195.863281 276.9375 C 186.460938 274.75 174.277344 273.398438 160.980469 273.34375 Z M 160.980469 273.34375 "/><path style=" stroke:none;fill-rule:evenodd;fill:#dc7d66;fill-opacity:1;" d="M 106.722656 287.3125 L 106 308.820312 C 143.457031 323.453125 180.140625 322.644531 216.269531 310.691406 L 215.890625 286.769531 C 180.414062 297.292969 143.953125 296.664062 106.722656 287.3125 Z M 106.722656 287.3125 "/><path style=" stroke:none;fill-rule:evenodd;fill:#8b3f05;fill-opacity:1;" d="M 106.855469 286.675781 L 106.855469 286.808594 C 125.238281 291.316406 143.425781 293.667969 161.378906 293.660156 C 168.738281 293.65625 176.058594 293.242188 183.351562 292.445312 C 194.199219 291.261719 204.984375 289.214844 215.679688 286.109375 C 215.890625 286.046875 216.125 286.085938 216.308594 286.210938 C 216.488281 286.339844 216.59375 286.542969 216.59375 286.757812 C 216.59375 286.757812 216.667969 296.457031 216.753906 303.507812 C 216.804688 307.527344 216.863281 310.683594 216.863281 310.683594 C 216.863281 310.933594 216.707031 311.15625 216.460938 311.238281 C 203.695312 315.574219 190.855469 318.5625 177.910156 319.875 C 172.265625 320.449219 166.601562 320.691406 160.921875 320.617188 C 142.683594 320.378906 124.285156 316.824219 105.714844 309.511719 C 105.417969 309.394531 105.226562 309.109375 105.238281 308.796875 L 106.039062 287.292969 L 106.183594 287.292969 C 106.191406 287.09375 106.269531 286.90625 106.398438 286.785156 C 106.53125 286.664062 106.695312 286.625 106.855469 286.675781 Z M 107.382812 288.023438 C 107.382812 288.023438 106.78125 308.324219 106.78125 308.324219 C 125.019531 315.324219 143.066406 318.628906 160.941406 318.820312 C 166.554688 318.878906 172.148438 318.625 177.734375 318.105469 C 190.433594 316.925781 203.085938 314.300781 215.671875 310.277344 C 215.660156 309.289062 215.621094 306.671875 215.5625 303.523438 C 215.449219 297.777344 215.269531 290.269531 215.203125 287.695312 C 204.746094 290.8125 194.199219 293 183.554688 294.199219 C 176.203125 295.03125 168.804688 295.382812 161.371094 295.328125 C 143.5625 295.195312 125.554688 292.640625 107.382812 288.023438 Z M 107.382812 288.023438 "/><path style=" stroke:none;fill-rule:evenodd;fill:#bdccd4;fill-opacity:1;" d="M 189 139 L 174.96875 139 L 175.339844 283.1875 C 179.339844 287.933594 186.511719 287.835938 189.855469 282.863281 Z M 189 139 "/><path style=" stroke:none;fill-rule:evenodd;fill:#8b3f05;fill-opacity:1;" d="M 189.535156 138.996094 C 189.535156 138.996094 189.878906 167.671875 190.199219 199.417969 C 190.277344 207.992188 190.378906 216.792969 190.429688 225.3125 C 190.464844 231.261719 190.46875 237.070312 190.476562 242.574219 C 190.515625 265.363281 190.484375 282.859375 190.484375 282.859375 C 190.484375 282.976562 190.449219 283.097656 190.382812 283.195312 C 188.550781 285.894531 185.671875 287.238281 182.726562 287.25 C 179.886719 287.261719 176.976562 286.039062 174.878906 283.554688 C 174.792969 283.449219 174.746094 283.320312 174.746094 283.1875 C 174.746094 283.1875 174.519531 265.65625 174.347656 242.816406 C 174.308594 237.300781 174.28125 231.476562 174.261719 225.511719 C 174.164062 185.367188 174.25 139 174.25 139 C 174.25 138.8125 174.320312 138.632812 174.460938 138.5 C 174.601562 138.367188 174.777344 138.292969 174.96875 138.292969 L 189 138.339844 C 189.292969 138.339844 189.535156 138.632812 189.535156 138.996094 Z M 188.457031 139.660156 C 188.457031 139.660156 175.703125 139.699219 175.703125 139.699219 C 175.746094 145.652344 176.027344 188.257812 176.121094 225.507812 C 176.136719 231.46875 176.136719 237.296875 176.121094 242.8125 C 176.074219 264.207031 175.957031 280.945312 175.9375 282.976562 C 177.777344 285.066406 180.277344 286.113281 182.71875 286.09375 C 185.222656 286.074219 187.648438 284.933594 189.226562 282.683594 C 189.199219 280.757812 188.972656 264.011719 188.75 242.585938 C 188.695312 237.082031 188.628906 231.269531 188.597656 225.320312 C 188.542969 216.800781 188.539062 208.003906 188.523438 199.425781 C 188.464844 170.496094 188.457031 144.113281 188.457031 139.660156 Z M 188.457031 139.660156 "/><path style=" stroke:none;fill-rule:evenodd;fill:#f1d7be;fill-opacity:1;" d="M 175.71875 125.675781 L 175.460938 137.457031 L 172.066406 142.414062 C 178.382812 146.9375 186.152344 146.523438 192.292969 142.871094 L 188.9375 138.054688 L 189.160156 124.429688 Z M 175.71875 125.675781 "/><path style=" stroke:none;fill-rule:evenodd;fill:#8b3f05;fill-opacity:1;" d="M 175.675781 125.019531 L 175.675781 125.15625 L 189.082031 123.628906 C 189.320312 123.605469 189.550781 123.683594 189.722656 123.839844 C 189.894531 123.992188 189.996094 124.214844 189.988281 124.445312 C 189.988281 124.445312 190.035156 127.851562 189.960938 131.257812 C 189.902344 134.15625 189.757812 137.054688 189.71875 137.851562 L 192.808594 142.53125 C 192.902344 142.667969 192.933594 142.835938 192.902344 143 C 192.859375 143.160156 192.761719 143.300781 192.617188 143.386719 C 191.664062 143.941406 190.65625 144.40625 189.652344 144.828125 C 187.222656 145.832031 184.675781 146.46875 182.082031 146.511719 C 180.578125 146.535156 179.074219 146.386719 177.59375 146.011719 C 175.488281 145.484375 173.449219 144.503906 171.53125 143.121094 C 171.140625 142.84375 171.046875 142.316406 171.3125 141.925781 L 174.628906 137.195312 L 175.046875 125.660156 L 175.183594 125.660156 C 175.191406 125.328125 175.402344 125.050781 175.675781 125.019531 Z M 176.394531 126.152344 L 176.304688 137.476562 C 176.296875 137.632812 176.25 137.78125 176.15625 137.914062 L 173.304688 142.175781 C 174.832031 143.152344 176.441406 143.820312 178.078125 144.265625 C 179.40625 144.628906 180.742188 144.851562 182.09375 144.902344 C 184.503906 144.992188 186.925781 144.640625 189.195312 143.757812 C 189.957031 143.464844 190.683594 143.097656 191.398438 142.691406 L 188.300781 138.472656 C 188.207031 138.347656 188.164062 138.195312 188.167969 138.042969 C 188.167969 138.042969 188.097656 134.636719 188.136719 131.226562 C 188.167969 128.878906 188.25 126.53125 188.292969 125.300781 Z M 176.394531 126.152344 "/><path style=" stroke:none;fill-rule:nonzero;fill:#f1d7be;fill-opacity:1;" d="M 196.539062 116.867188 C 196.539062 117.695312 196.453125 118.515625 196.28125 119.328125 C 196.105469 120.140625 195.847656 120.925781 195.507812 121.691406 C 195.164062 122.457031 194.746094 123.183594 194.253906 123.871094 C 193.757812 124.558594 193.195312 125.195312 192.5625 125.78125 C 191.933594 126.367188 191.246094 126.890625 190.503906 127.347656 C 189.765625 127.808594 188.980469 128.199219 188.15625 128.515625 C 187.332031 128.832031 186.484375 129.070312 185.609375 129.230469 C 184.734375 129.394531 183.851562 129.472656 182.960938 129.472656 C 182.070312 129.472656 181.1875 129.394531 180.3125 129.230469 C 179.4375 129.070312 178.585938 128.832031 177.765625 128.515625 C 176.941406 128.199219 176.15625 127.808594 175.414062 127.347656 C 174.675781 126.890625 173.988281 126.367188 173.359375 125.78125 C 172.726562 125.195312 172.164062 124.558594 171.667969 123.871094 C 171.171875 123.183594 170.753906 122.457031 170.414062 121.691406 C 170.074219 120.925781 169.816406 120.140625 169.640625 119.328125 C 169.46875 118.515625 169.378906 117.695312 169.378906 116.867188 C 169.378906 116.039062 169.46875 115.21875 169.640625 114.40625 C 169.816406 113.597656 170.074219 112.808594 170.414062 112.042969 C 170.753906 111.277344 171.171875 110.550781 171.667969 109.863281 C 172.164062 109.175781 172.726562 108.539062 173.359375 107.953125 C 173.988281 107.367188 174.675781 106.84375 175.414062 106.386719 C 176.15625 105.925781 176.941406 105.539062 177.765625 105.222656 C 178.585938 104.902344 179.4375 104.664062 180.3125 104.503906 C 181.1875 104.34375 182.070312 104.261719 182.960938 104.261719 C 183.851562 104.261719 184.734375 104.34375 185.609375 104.503906 C 186.484375 104.664062 187.332031 104.902344 188.15625 105.222656 C 188.980469 105.539062 189.765625 105.925781 190.503906 106.386719 C 191.246094 106.84375 191.933594 107.367188 192.5625 107.953125 C 193.195312 108.539062 193.757812 109.175781 194.253906 109.863281 C 194.746094 110.550781 195.164062 111.277344 195.507812 112.042969 C 195.847656 112.808594 196.105469 113.597656 196.28125 114.40625 C 196.453125 115.21875 196.539062 116.039062 196.539062 116.867188 Z M 196.539062 116.867188 "/><path style=" stroke:none;fill-rule:evenodd;fill:#8b3f05;fill-opacity:1;" d="M 182.960938 103.738281 L 182.960938 103.601562 C 186.851562 103.554688 190.394531 104.96875 193 107.28125 C 195.71875 109.695312 197.40625 113.097656 197.449219 116.867188 C 197.460938 119.507812 196.667969 121.988281 195.242188 124.0625 C 194.628906 124.960938 193.886719 125.78125 193.046875 126.507812 C 190.417969 128.789062 186.851562 130.152344 182.960938 130.050781 C 181.847656 130.058594 180.769531 129.9375 179.722656 129.722656 C 177.144531 129.199219 174.8125 128.054688 172.949219 126.433594 C 171.285156 124.988281 169.984375 123.179688 169.226562 121.136719 C 168.730469 119.796875 168.480469 118.359375 168.480469 116.867188 C 168.539062 113.105469 170.234375 109.714844 172.96875 107.324219 C 175.566406 105.042969 179.101562 103.664062 182.960938 103.738281 Z M 182.960938 104.921875 L 182.960938 104.785156 C 179.441406 104.851562 176.28125 106.222656 173.980469 108.382812 C 171.664062 110.5625 170.234375 113.566406 170.289062 116.867188 C 170.289062 118.15625 170.519531 119.394531 170.921875 120.558594 C 171.550781 122.371094 172.597656 124.007812 174 125.332031 C 175.621094 126.867188 177.671875 128.023438 179.996094 128.5625 C 180.949219 128.78125 181.941406 128.890625 182.960938 128.898438 C 186.460938 128.804688 189.585938 127.414062 191.855469 125.257812 C 192.550781 124.597656 193.164062 123.859375 193.6875 123.070312 C 194.898438 121.261719 195.632812 119.148438 195.640625 116.867188 C 195.675781 113.574219 194.230469 110.585938 191.902344 108.425781 C 189.613281 106.296875 186.453125 104.960938 182.960938 104.921875 Z M 182.960938 104.921875 "/></g></svg>