<svg xmlns="http://www.w3.org/2000/svg" xmlns:xlink="http://www.w3.org/1999/xlink" width="145" zoomAndPan="magnify" viewBox="0 0 108.75 189.749994" height="253" preserveAspectRatio="xMidYMid meet" version="1.2"><g id="7ad7ad798c"><path style=" stroke:none;fill-rule:evenodd;fill:#7e866e;fill-opacity:1;" d="M 67.566406 105.136719 C 65.128906 105.265625 28.847656 105.671875 21.28125 105.734375 C 19.378906 105.75 19.546875 118.925781 19.546875 118.925781 C 19.546875 118.925781 11.234375 121.472656 6.707031 127.78125 C 0.015625 137.101562 1.703125 166.300781 3.253906 177.410156 C 4.46875 186.125 28.546875 187.8125 41.523438 188.34375 C 63.472656 189.242188 84.898438 185.046875 85.378906 177.027344 C 85.789062 170.113281 87.070312 136.429688 83.128906 128.9375 C 79.183594 121.445312 69.398438 119.558594 69.398438 119.558594 C 69.398438 119.558594 69.835938 105.015625 67.566406 105.136719 Z M 67.566406 105.136719 "/><path style=" stroke:none;fill-rule:evenodd;fill:#ebcb98;fill-opacity:1;" d="M 67.929688 105.332031 C 67.882812 104.335938 53.46875 103.65625 44.550781 103.601562 C 35.386719 103.546875 21.140625 104.871094 20.960938 106.003906 C 20.789062 107.089844 36.160156 108.21875 45.019531 108.3125 C 53.9375 108.40625 67.972656 106.257812 67.929688 105.332031 Z M 67.929688 105.332031 "/><path style=" stroke:none;fill-rule:evenodd;fill:#dce2ad;fill-opacity:1;" d="M 21.132812 119.363281 C 20.90625 119.535156 20.195312 120.0625 19.503906 120.472656 C 17.734375 121.519531 15.179688 122.90625 13.054688 124.613281 C 11.542969 125.824219 10.253906 127.195312 9.542969 128.691406 C 8.101562 131.726562 6.964844 138.835938 6.414062 147.042969 C 5.589844 159.253906 6.023438 173.898438 8.402344 180.96875 C 8.570312 181.464844 9.105469 181.734375 9.601562 181.570312 C 10.097656 181.402344 10.367188 180.863281 10.199219 180.367188 C 7.871094 173.445312 7.5 159.117188 8.308594 147.171875 C 8.839844 139.273438 9.875 132.421875 11.257812 129.503906 C 11.855469 128.238281 12.96875 127.105469 14.242188 126.089844 C 16.289062 124.445312 18.761719 123.113281 20.46875 122.101562 C 21.433594 121.53125 22.175781 121.039062 22.539062 120.65625 C 22.894531 120.285156 23.015625 119.914062 23.023438 119.625 C 23.082031 116.535156 23.253906 111.203125 23.5625 108.839844 C 23.628906 108.324219 23.261719 107.84375 22.742188 107.777344 C 22.222656 107.710938 21.746094 108.078125 21.675781 108.59375 C 21.375 110.949219 21.191406 116.183594 21.132812 119.363281 Z M 21.132812 119.363281 "/><path style=" stroke:none;fill-rule:evenodd;fill:#dce2ad;fill-opacity:1;" d="M 12.023438 132.46875 C 9.148438 141.382812 9.042969 153.074219 9.550781 161.789062 C 9.578125 162.3125 10.03125 162.710938 10.550781 162.679688 C 11.074219 162.648438 11.476562 162.199219 11.445312 161.675781 C 10.945312 153.167969 11.027344 141.746094 13.832031 133.046875 C 13.992188 132.546875 13.71875 132.011719 13.21875 131.855469 C 12.722656 131.695312 12.1875 131.972656 12.023438 132.46875 Z M 12.023438 132.46875 "/><path style=" stroke:none;fill-rule:evenodd;fill:#e4b791;fill-opacity:1;" d="M 35.449219 77.667969 C 37.171875 77.253906 38.261719 73.707031 39.203125 72.640625 C 41.816406 69.671875 39.636719 66.316406 36.371094 65.460938 C 33.070312 64.597656 29.292969 66.957031 28.394531 69.132812 C 27.679688 70.859375 27.796875 73.664062 28.894531 75.148438 C 30.453125 77.269531 33.730469 78.089844 35.449219 77.667969 Z M 35.449219 77.667969 "/><path style=" stroke:none;fill-rule:evenodd;fill:#e4b791;fill-opacity:1;" d="M 87.851562 8.089844 C 88.015625 9.847656 91.363281 11.441406 92.285156 12.53125 C 94.839844 15.546875 98.476562 13.878906 99.796875 10.765625 C 101.128906 7.621094 99.339844 3.546875 97.324219 2.339844 C 95.722656 1.378906 92.925781 1.089844 91.296875 1.960938 C 88.980469 3.203125 87.691406 6.328125 87.851562 8.089844 Z M 87.851562 8.089844 "/><path style=" stroke:none;fill-rule:evenodd;fill:#e4b791;fill-opacity:1;" d="M 78.128906 15.992188 C 79 16.839844 81.460938 16.175781 82.425781 16.335938 C 85.113281 16.769531 86.269531 14.273438 85.570312 12.058594 C 84.867188 9.824219 82.109375 8.488281 80.515625 8.753906 C 79.246094 8.964844 77.65625 10.066406 77.195312 11.246094 C 76.539062 12.933594 77.257812 15.140625 78.128906 15.992188 Z M 78.128906 15.992188 "/><path style=" stroke:none;fill-rule:evenodd;fill:#e4b791;fill-opacity:1;" d="M 76.179688 28.023438 C 75.570312 29.003906 76.472656 31.136719 76.464844 32.058594 C 76.453125 34.625 78.753906 35.171875 80.570312 34.0625 C 82.398438 32.941406 83.171875 30.125 82.726562 28.707031 C 82.371094 27.582031 81.214844 26.351562 80.132812 26.167969 C 78.597656 25.914062 76.792969 27.042969 76.179688 28.023438 Z M 76.179688 28.023438 "/><path style=" stroke:none;fill-rule:evenodd;fill:#e4b791;fill-opacity:1;" d="M 87.375 31.730469 C 87.835938 32.753906 89.511719 33.132812 90.230469 33.617188 C 92.226562 34.957031 94.707031 32.308594 94.964844 30.273438 C 95.222656 28.210938 93.535156 26.238281 92.183594 25.777344 C 90.679688 25.261719 88.71875 26.332031 87.476562 27.488281 C 86.308594 28.578125 86.914062 30.707031 87.375 31.730469 Z M 87.375 31.730469 "/><path style=" stroke:none;fill-rule:evenodd;fill:#e4b791;fill-opacity:1;" d="M 91.789062 38.683594 C 90.589844 38.496094 89.382812 39.484375 88.386719 39.96875 C 85.625 41.316406 86.179688 44.378906 88.269531 45.972656 C 90.382812 47.582031 93.796875 47.019531 95.097656 45.726562 C 96.128906 44.707031 96.882812 42.652344 96.542969 41.261719 C 96.054688 39.269531 93.148438 38.902344 91.789062 38.683594 Z M 91.789062 38.683594 "/><path style=" stroke:none;fill-rule:evenodd;fill:#e4b791;fill-opacity:1;" d="M 72.792969 54.59375 C 73.863281 54.996094 75.734375 53.5 76.625 53.273438 C 79.101562 52.640625 79.164062 50.054688 77.730469 48.410156 C 76.277344 46.742188 73.40625 46.632812 72.128906 47.460938 C 71.117188 48.121094 70.160156 49.664062 70.207031 50.859375 C 70.265625 52.5625 71.71875 54.195312 72.792969 54.59375 Z M 72.792969 54.59375 "/><path style=" stroke:none;fill-rule:evenodd;fill:#e4b791;fill-opacity:1;" d="M 78.996094 56.625 C 79.105469 58.328125 82.292969 59.957031 83.148438 61.027344 C 85.527344 64.007812 89.082031 62.5 90.4375 59.535156 C 91.808594 56.542969 90.199219 52.566406 88.289062 51.34375 C 86.769531 50.375 84.082031 50.019531 82.488281 50.808594 C 80.214844 51.945312 78.886719 54.925781 78.996094 56.625 Z M 78.996094 56.625 "/><path style=" stroke:none;fill-rule:evenodd;fill:#e4b791;fill-opacity:1;" d="M 76.371094 63.367188 C 75.433594 64.277344 76.070312 66.933594 75.878906 67.964844 C 75.332031 70.828125 77.972656 72.140625 80.367188 71.457031 C 82.789062 70.761719 84.296875 67.851562 84.054688 66.132812 C 83.863281 64.769531 82.738281 63.03125 81.480469 62.5 C 79.691406 61.75 77.300781 62.460938 76.371094 63.367188 Z M 76.371094 63.367188 "/><path style=" stroke:none;fill-rule:evenodd;fill:#e4b791;fill-opacity:1;" d="M 74.097656 79.082031 C 73.46875 80.820312 75.921875 83.816406 76.308594 85.253906 C 77.378906 89.242188 81.558594 89.289062 84.195312 86.933594 C 86.859375 84.554688 86.980469 79.910156 85.613281 77.867188 C 84.523438 76.246094 82.015625 74.722656 80.085938 74.820312 C 77.339844 74.960938 74.726562 77.34375 74.097656 79.082031 Z M 74.097656 79.082031 "/><path style=" stroke:none;fill-rule:evenodd;fill:#e4b791;fill-opacity:1;" d="M 95.804688 33.230469 C 95.300781 34.949219 97.855469 37.699219 98.320312 39.066406 C 99.597656 42.867188 103.644531 42.65625 106.054688 40.21875 C 108.484375 37.757812 108.324219 33.253906 106.875 31.359375 C 105.722656 29.855469 103.203125 28.539062 101.34375 28.746094 C 98.691406 29.050781 96.308594 31.507812 95.804688 33.230469 Z M 95.804688 33.230469 "/><path style=" stroke:none;fill-rule:evenodd;fill:#e4b791;fill-opacity:1;" d="M 34.257812 86.886719 C 33.527344 87.933594 30.863281 87.738281 29.898438 88.085938 C 27.222656 89.0625 25.542969 86.71875 25.828125 84.296875 C 26.113281 81.855469 28.6875 79.945312 30.382812 79.90625 C 31.730469 79.875 33.582031 80.695312 34.289062 81.820312 C 35.300781 83.429688 34.992188 85.84375 34.257812 86.886719 Z M 34.257812 86.886719 "/><path style=" stroke:none;fill-rule:evenodd;fill:#e4b791;fill-opacity:1;" d="M 45.289062 83.429688 C 43.871094 83.921875 41.472656 81.898438 40.3125 81.570312 C 37.089844 80.65625 37.101562 77.269531 39.035156 75.160156 C 40.992188 73.03125 44.757812 72.980469 46.398438 74.113281 C 47.699219 75.011719 48.898438 77.0625 48.800781 78.625 C 48.660156 80.84375 46.703125 82.9375 45.289062 83.429688 Z M 45.289062 83.429688 "/><path style=" stroke:none;fill-rule:evenodd;fill:#e4b791;fill-opacity:1;" d="M 47.320312 48.152344 C 47.582031 49.914062 44.6875 52.277344 44.046875 53.5625 C 42.265625 57.128906 38.304688 56.367188 36.265625 53.636719 C 34.207031 50.882812 34.980469 46.460938 36.667969 44.792969 C 38.007812 43.46875 40.671875 42.511719 42.472656 42.976562 C 45.050781 43.636719 47.058594 46.386719 47.320312 48.152344 Z M 47.320312 48.152344 "/><path style=" stroke:none;fill-rule:evenodd;fill:#e4b791;fill-opacity:1;" d="M 55.386719 49.289062 C 54.386719 50.210938 51.660156 49.402344 50.578125 49.546875 C 47.570312 49.957031 46.351562 47.136719 47.195312 44.683594 C 48.050781 42.207031 51.164062 40.800781 52.9375 41.144531 C 54.34375 41.421875 56.085938 42.691406 56.566406 44.023438 C 57.257812 45.925781 56.386719 48.371094 55.386719 49.289062 Z M 55.386719 49.289062 "/><path style=" stroke:none;fill-rule:evenodd;fill:#e4b791;fill-opacity:1;" d="M 66.03125 29.886719 C 66.054688 31.246094 63.636719 32.738281 63.023438 33.644531 C 61.324219 36.160156 58.410156 35.191406 57.144531 32.925781 C 55.863281 30.640625 56.890625 27.378906 58.328125 26.289062 C 59.472656 25.421875 61.582031 24.96875 62.894531 25.496094 C 64.769531 26.253906 66.011719 28.53125 66.03125 29.886719 Z M 66.03125 29.886719 "/><path style=" stroke:none;fill-rule:evenodd;fill:#e4b791;fill-opacity:1;" d="M 72.292969 81.417969 C 71.769531 82.515625 69.230469 82.753906 68.375 83.238281 C 66.011719 84.582031 64.050781 82.644531 63.9375 80.320312 C 63.820312 77.972656 65.945312 75.761719 67.535156 75.457031 C 68.800781 75.214844 70.675781 75.691406 71.519531 76.640625 C 72.722656 77.996094 72.816406 80.320312 72.292969 81.417969 Z M 72.292969 81.417969 "/><path style=" stroke:none;fill-rule:evenodd;fill:#e4b791;fill-opacity:1;" d="M 66.140625 98.828125 C 65.023438 97.71875 65.8125 94.519531 65.589844 93.269531 C 64.960938 89.804688 68.160156 88.242188 71.046875 89.097656 C 73.960938 89.957031 75.753906 93.484375 75.445312 95.554688 C 75.199219 97.199219 73.820312 99.285156 72.304688 99.914062 C 70.136719 100.816406 67.257812 99.9375 66.140625 98.828125 Z M 66.140625 98.828125 "/><path style=" stroke:none;fill-rule:evenodd;fill:#e4b791;fill-opacity:1;" d="M 52.175781 57.421875 C 52.90625 57.964844 52.585938 59.355469 52.675781 60.105469 C 52.917969 62.1875 50.367188 64.496094 48.683594 63.882812 C 46.984375 63.261719 45.554688 60.78125 45.8125 59.5625 C 46.023438 58.59375 47.238281 57.085938 48.160156 56.773438 C 49.488281 56.316406 51.425781 56.867188 52.175781 57.421875 Z M 52.175781 57.421875 "/><path style=" stroke:none;fill-rule:evenodd;fill:#e4b791;fill-opacity:1;" d="M 58.085938 17.554688 C 58.816406 18.378906 58.121094 20.578125 58.222656 21.457031 C 58.503906 23.902344 56.203125 24.851562 54.222656 24.132812 C 52.222656 23.398438 51.128906 20.855469 51.441406 19.425781 C 51.6875 18.289062 52.738281 16.890625 53.828125 16.519531 C 55.382812 15.992188 57.351562 16.734375 58.085938 17.554688 Z M 58.085938 17.554688 "/><path style=" stroke:none;fill-rule:evenodd;fill:#e4b791;fill-opacity:1;" d="M 67.480469 10.5 C 66.269531 13.421875 62.226562 13.457031 61.570312 14.832031 C 60.246094 17.601562 55.507812 15.179688 54.136719 12.691406 C 52.375 9.488281 53.347656 5.222656 55.089844 3.40625 C 56.476562 1.960938 59.753906 0.125 62.578125 1.597656 C 65.082031 2.90625 68.816406 7.269531 67.480469 10.5 Z M 67.480469 10.5 "/><path style=" stroke:none;fill-rule:evenodd;fill:#e4b791;fill-opacity:1;" d="M 73.207031 20.449219 C 72.050781 21.082031 69.671875 19.675781 68.613281 19.5625 C 65.683594 19.234375 65.199219 16.292969 66.578125 14.179688 C 67.96875 12.046875 71.230469 11.453125 72.816406 12.199219 C 74.078125 12.789062 75.421875 14.398438 75.5625 15.765625 C 75.761719 17.71875 74.367188 19.816406 73.207031 20.449219 Z M 73.207031 20.449219 "/><path style=" stroke:none;fill-rule:evenodd;fill:#926a4c;fill-opacity:1;" d="M 50.125 139.710938 C 45.535156 129.421875 42.648438 119.203125 49.027344 101.570312 C 50.898438 96.40625 54.023438 91.777344 57.140625 87.152344 C 60.339844 82.410156 63.535156 77.667969 65.457031 72.40625 C 68.359375 64.476562 68.484375 56.46875 69.054688 48.824219 C 69.601562 41.429688 70.566406 34.378906 75.140625 28.136719 C 76.667969 26.050781 78.746094 24.472656 80.875 22.925781 C 83.128906 21.296875 85.433594 19.703125 87.277344 17.703125 C 88.976562 15.855469 90.492188 13.589844 92.066406 11.5625 C 93.527344 9.683594 95.027344 8 96.84375 7.171875 C 97.292969 6.96875 97.488281 6.433594 97.285156 5.984375 C 97.082031 5.53125 96.546875 5.335938 96.097656 5.539062 C 94.4375 6.296875 92.984375 7.644531 91.621094 9.261719 C 89.714844 11.515625 87.972656 14.296875 85.964844 16.488281 C 84.199219 18.40625 81.984375 19.914062 79.832031 21.476562 C 77.550781 23.132812 75.335938 24.84375 73.699219 27.078125 C 68.914062 33.605469 67.847656 40.957031 67.269531 48.6875 C 66.714844 56.175781 66.621094 64.023438 63.78125 71.789062 C 61.902344 76.917969 58.773438 81.527344 55.660156 86.148438 C 52.460938 90.894531 49.265625 95.652344 47.347656 100.957031 C 40.746094 119.207031 43.738281 129.789062 48.496094 140.4375 C 48.695312 140.886719 49.226562 141.09375 49.679688 140.890625 C 50.125 140.691406 50.332031 140.160156 50.125 139.710938 Z M 50.125 139.710938 "/><path style=" stroke:none;fill-rule:evenodd;fill:#926a4c;fill-opacity:1;" d="M 70.332031 38.632812 C 70.804688 36.167969 70.390625 33.371094 69.5 30.453125 C 68.226562 26.273438 65.964844 21.832031 64.152344 17.816406 C 62.984375 15.234375 62.007812 12.835938 61.640625 10.808594 C 61.425781 9.613281 61.417969 8.570312 61.78125 7.722656 C 61.976562 7.265625 61.765625 6.742188 61.3125 6.542969 C 60.855469 6.347656 60.332031 6.558594 60.132812 7.011719 C 59.644531 8.144531 59.589844 9.539062 59.875 11.128906 C 60.265625 13.277344 61.285156 15.820312 62.515625 18.554688 C 64.296875 22.507812 66.527344 26.867188 67.785156 30.980469 C 68.585938 33.589844 68.992188 36.089844 68.570312 38.296875 C 68.476562 38.78125 68.796875 39.25 69.28125 39.34375 C 69.765625 39.433594 70.234375 39.117188 70.332031 38.632812 Z M 70.332031 38.632812 "/><path style=" stroke:none;fill-rule:evenodd;fill:#926a4c;fill-opacity:1;" d="M 68.847656 27.992188 C 68.699219 23.75 69.929688 20.578125 71.578125 16.746094 C 71.777344 16.292969 71.566406 15.765625 71.109375 15.570312 C 70.65625 15.375 70.128906 15.585938 69.933594 16.039062 C 68.171875 20.132812 66.894531 23.523438 67.054688 28.058594 C 67.074219 28.554688 67.488281 28.941406 67.984375 28.921875 C 68.476562 28.902344 68.859375 28.484375 68.847656 27.992188 Z M 68.847656 27.992188 "/><path style=" stroke:none;fill-rule:evenodd;fill:#926a4c;fill-opacity:1;" d="M 65.703125 21.816406 C 63.738281 20.140625 61.640625 20.007812 59.617188 20.027344 C 58.003906 20.042969 56.4375 20.21875 55.144531 19.238281 C 54.75 18.941406 54.1875 19.019531 53.886719 19.414062 C 53.585938 19.808594 53.664062 20.371094 54.0625 20.671875 C 55.394531 21.679688 56.917969 21.839844 58.546875 21.832031 C 60.488281 21.828125 62.605469 21.535156 64.539062 23.183594 C 64.914062 23.507812 65.480469 23.460938 65.800781 23.082031 C 66.125 22.703125 66.078125 22.136719 65.703125 21.816406 Z M 65.703125 21.816406 "/><path style=" stroke:none;fill-rule:evenodd;fill:#926a4c;fill-opacity:1;" d="M 68.222656 31.148438 C 65.535156 32.164062 62.660156 31.730469 61.234375 29.152344 C 60.996094 28.71875 60.453125 28.5625 60.015625 28.800781 C 59.585938 29.039062 59.425781 29.582031 59.664062 30.019531 C 61.546875 33.429688 65.300781 34.171875 68.855469 32.824219 C 69.316406 32.648438 69.550781 32.132812 69.371094 31.667969 C 69.203125 31.203125 68.683594 30.972656 68.222656 31.148438 Z M 68.222656 31.148438 "/><path style=" stroke:none;fill-rule:evenodd;fill:#926a4c;fill-opacity:1;" d="M 78.492188 24.386719 C 82.855469 19.28125 81.578125 17.800781 82.464844 13.625 C 82.566406 13.140625 82.257812 12.664062 81.777344 12.558594 C 81.292969 12.457031 80.816406 12.769531 80.710938 13.25 C 80.449219 14.496094 80.378906 15.5 80.300781 16.441406 C 80.128906 18.40625 79.867188 20.019531 77.132812 23.222656 C 76.8125 23.597656 76.859375 24.164062 77.234375 24.488281 C 77.609375 24.808594 78.175781 24.761719 78.492188 24.386719 Z M 78.492188 24.386719 "/><path style=" stroke:none;fill-rule:evenodd;fill:#926a4c;fill-opacity:1;" d="M 70.976562 35.636719 C 72.441406 33.039062 75.363281 31.789062 78.183594 31.175781 C 78.667969 31.070312 78.972656 30.59375 78.867188 30.109375 C 78.761719 29.625 78.285156 29.316406 77.800781 29.425781 C 74.492188 30.144531 71.132812 31.707031 69.417969 34.753906 C 69.175781 35.1875 69.328125 35.730469 69.757812 35.972656 C 70.1875 36.21875 70.734375 36.066406 70.976562 35.636719 Z M 70.976562 35.636719 "/><path style=" stroke:none;fill-rule:evenodd;fill:#926a4c;fill-opacity:1;" d="M 66.929688 66.089844 C 64.847656 60.007812 59.5625 57.335938 54.234375 55.257812 C 51.722656 54.277344 49.207031 53.425781 47.078125 52.351562 C 45.113281 51.359375 43.480469 50.183594 42.589844 48.464844 C 42.359375 48.027344 41.820312 47.855469 41.378906 48.082031 C 40.941406 48.308594 40.769531 48.851562 40.996094 49.289062 C 41.855469 50.9375 43.238281 52.195312 44.972656 53.234375 C 47.386719 54.6875 50.480469 55.714844 53.582031 56.925781 C 58.429688 58.820312 63.339844 61.140625 65.238281 66.671875 C 65.398438 67.144531 65.90625 67.394531 66.378906 67.230469 C 66.839844 67.070312 67.089844 66.558594 66.929688 66.089844 Z M 66.929688 66.089844 "/><path style=" stroke:none;fill-rule:evenodd;fill:#926a4c;fill-opacity:1;" d="M 55.359375 55.207031 C 54.425781 54.730469 53.878906 53.558594 53.472656 52.226562 C 52.769531 49.902344 52.609375 47.0625 52.519531 45.480469 C 52.492188 44.988281 52.070312 44.609375 51.574219 44.636719 C 51.082031 44.664062 50.703125 45.089844 50.730469 45.582031 C 50.828125 47.265625 51.007812 50.277344 51.757812 52.742188 C 52.324219 54.601562 53.238281 56.136719 54.546875 56.804688 C 54.984375 57.027344 55.527344 56.851562 55.75 56.414062 C 55.976562 55.972656 55.800781 55.433594 55.359375 55.207031 Z M 55.359375 55.207031 "/><path style=" stroke:none;fill-rule:evenodd;fill:#926a4c;fill-opacity:1;" d="M 60.441406 58.5625 C 58.789062 59.089844 56.367188 59.800781 54.144531 59.863281 C 52.824219 59.894531 51.574219 59.714844 50.664062 59.023438 C 50.269531 58.722656 49.707031 58.796875 49.40625 59.191406 C 49.109375 59.585938 49.183594 60.144531 49.578125 60.449219 C 50.785156 61.367188 52.433594 61.703125 54.1875 61.652344 C 56.585938 61.589844 59.203125 60.839844 60.980469 60.269531 C 61.453125 60.121094 61.710938 59.617188 61.5625 59.144531 C 61.417969 58.671875 60.910156 58.410156 60.441406 58.5625 Z M 60.441406 58.5625 "/><path style=" stroke:none;fill-rule:evenodd;fill:#926a4c;fill-opacity:1;" d="M 47.394531 106.628906 C 48.738281 100.140625 44.875 93.707031 41.167969 87.570312 C 39.40625 84.65625 37.699219 81.808594 36.714844 79.039062 C 35.792969 76.445312 35.511719 73.933594 36.550781 71.515625 C 36.746094 71.0625 36.535156 70.535156 36.078125 70.339844 C 35.625 70.140625 35.097656 70.355469 34.902344 70.808594 C 33.683594 73.644531 33.945312 76.597656 35.023438 79.636719 C 36.046875 82.507812 37.800781 85.46875 39.628906 88.492188 C 41.394531 91.421875 43.226562 94.410156 44.449219 97.445312 C 45.625 100.351562 46.242188 103.292969 45.628906 106.261719 C 45.53125 106.746094 45.839844 107.222656 46.324219 107.324219 C 46.816406 107.429688 47.289062 107.113281 47.394531 106.628906 Z M 47.394531 106.628906 "/><path style=" stroke:none;fill-rule:evenodd;fill:#926a4c;fill-opacity:1;" d="M 42.867188 90.789062 C 41.460938 86.523438 42.046875 83.226562 44.453125 79.738281 C 44.734375 79.332031 44.632812 78.773438 44.222656 78.496094 C 43.820312 78.214844 43.257812 78.316406 42.976562 78.722656 C 40.230469 82.707031 39.554688 86.476562 41.167969 91.347656 C 41.324219 91.820312 41.832031 92.070312 42.300781 91.917969 C 42.769531 91.765625 43.023438 91.257812 42.867188 90.789062 Z M 42.867188 90.789062 "/><path style=" stroke:none;fill-rule:evenodd;fill:#926a4c;fill-opacity:1;" d="M 45.285156 94.683594 C 43.667969 91.378906 40.414062 90.324219 37.195312 89.300781 C 34.472656 88.433594 31.757812 87.605469 30.667969 84.636719 C 30.5 84.171875 29.984375 83.929688 29.519531 84.101562 C 29.050781 84.273438 28.8125 84.789062 28.984375 85.253906 C 30.28125 88.804688 33.394531 89.972656 36.652344 91.011719 C 39.410156 91.890625 42.289062 92.644531 43.675781 95.476562 C 43.890625 95.917969 44.429688 96.105469 44.875 95.886719 C 45.3125 95.664062 45.5 95.132812 45.285156 94.683594 Z M 45.285156 94.683594 "/><path style=" stroke:none;fill-rule:evenodd;fill:#926a4c;fill-opacity:1;" d="M 52.304688 94.933594 C 56.550781 89.738281 64.414062 88.277344 71.027344 86.632812 C 75.773438 85.445312 79.910156 84.136719 81.960938 81.636719 C 82.277344 81.253906 82.21875 80.691406 81.835938 80.375 C 81.453125 80.0625 80.890625 80.117188 80.574219 80.5 C 79.683594 81.589844 78.316406 82.386719 76.664062 83.058594 C 73.996094 84.144531 70.605469 84.878906 67.117188 85.75 C 61.035156 87.261719 54.671875 89.214844 50.917969 93.800781 C 50.605469 94.183594 50.660156 94.75 51.042969 95.0625 C 51.425781 95.375 51.988281 95.316406 52.304688 94.933594 Z M 52.304688 94.933594 "/><path style=" stroke:none;fill-rule:evenodd;fill:#926a4c;fill-opacity:1;" d="M 66.605469 87.59375 C 69.929688 85.175781 70.585938 81.082031 70.214844 78.9375 C 70.128906 78.449219 69.664062 78.125 69.175781 78.207031 C 68.6875 78.289062 68.363281 78.753906 68.445312 79.242188 C 68.738281 80.957031 68.203125 84.214844 65.546875 86.144531 C 65.148438 86.433594 65.058594 86.996094 65.351562 87.394531 C 65.644531 87.792969 66.203125 87.882812 66.605469 87.59375 Z M 66.605469 87.59375 "/><path style=" stroke:none;fill-rule:evenodd;fill:#926a4c;fill-opacity:1;" d="M 56.773438 91.105469 C 59.859375 90.914062 61.175781 91.964844 62.613281 93.152344 C 64.304688 94.542969 66.136719 96.101562 70.304688 96.554688 C 70.796875 96.609375 71.238281 96.253906 71.292969 95.761719 C 71.34375 95.269531 70.988281 94.824219 70.496094 94.773438 C 66.839844 94.371094 65.238281 92.988281 63.753906 91.765625 C 62.011719 90.332031 60.402344 89.085938 56.660156 89.316406 C 56.167969 89.347656 55.789062 89.769531 55.820312 90.265625 C 55.855469 90.761719 56.28125 91.140625 56.773438 91.105469 Z M 56.773438 91.105469 "/><path style=" stroke:none;fill-rule:evenodd;fill:#926a4c;fill-opacity:1;" d="M 63.046875 77.632812 C 66.085938 74.988281 67.371094 72.167969 68.488281 69.457031 C 69.511719 66.984375 70.371094 64.605469 72.59375 62.640625 C 74.953125 60.554688 77.21875 60.023438 79.414062 59.5625 C 81.882812 59.042969 84.273438 58.59375 86.679688 56.625 C 87.0625 56.308594 87.117188 55.746094 86.804688 55.363281 C 86.488281 54.980469 85.925781 54.925781 85.542969 55.238281 C 83.40625 56.996094 81.246094 57.347656 79.046875 57.808594 C 76.578125 58.328125 74.054688 58.957031 71.40625 61.296875 C 68.957031 63.460938 67.957031 66.050781 66.832031 68.769531 C 65.804688 71.253906 64.65625 73.859375 61.867188 76.28125 C 61.492188 76.605469 61.457031 77.167969 61.777344 77.542969 C 62.105469 77.914062 62.671875 77.957031 63.046875 77.632812 Z M 63.046875 77.632812 "/><path style=" stroke:none;fill-rule:evenodd;fill:#926a4c;fill-opacity:1;" d="M 67.832031 70.804688 C 69.847656 70.007812 71.347656 69.105469 72.75 68.375 C 74.644531 67.386719 76.34375 66.738281 79.152344 67.320312 C 79.636719 67.421875 80.109375 67.109375 80.210938 66.625 C 80.316406 66.140625 80 65.667969 79.515625 65.5625 C 76.183594 64.871094 74.160156 65.609375 71.917969 66.785156 C 70.5625 67.492188 69.117188 68.371094 67.167969 69.132812 C 66.707031 69.316406 66.484375 69.835938 66.664062 70.296875 C 66.851562 70.757812 67.371094 70.980469 67.832031 70.804688 Z M 67.832031 70.804688 "/><path style=" stroke:none;fill-rule:evenodd;fill:#926a4c;fill-opacity:1;" d="M 73.96875 61.480469 C 75.773438 59.65625 76.25 57.515625 76.148438 55.425781 C 76.058594 53.496094 75.464844 51.625 75.070312 50.175781 C 74.941406 49.699219 74.449219 49.414062 73.972656 49.542969 C 73.496094 49.671875 73.210938 50.164062 73.339844 50.640625 C 73.703125 51.992188 74.277344 53.722656 74.359375 55.507812 C 74.433594 57.128906 74.097656 58.804688 72.695312 60.21875 C 72.347656 60.570312 72.351562 61.136719 72.699219 61.488281 C 73.050781 61.832031 73.621094 61.828125 73.96875 61.480469 Z M 73.96875 61.480469 "/><path style=" stroke:none;fill-rule:evenodd;fill:#926a4c;fill-opacity:1;" d="M 69.304688 46.113281 C 72.734375 40.777344 79.21875 39.046875 85.746094 38.167969 C 92.628906 37.242188 99.589844 37.269531 103.53125 35.574219 C 103.988281 35.375 104.199219 34.851562 104 34.394531 C 103.804688 33.941406 103.277344 33.734375 102.824219 33.925781 C 98.984375 35.578125 92.203125 35.488281 85.503906 36.386719 C 78.449219 37.335938 71.507812 39.371094 67.796875 45.140625 C 67.527344 45.558594 67.648438 46.109375 68.066406 46.378906 C 68.484375 46.648438 69.039062 46.53125 69.304688 46.113281 Z M 69.304688 46.113281 "/><path style=" stroke:none;fill-rule:evenodd;fill:#926a4c;fill-opacity:1;" d="M 85.886719 38.144531 C 89.195312 36.820312 90.558594 33.558594 91.621094 31.097656 C 91.816406 30.644531 91.605469 30.117188 91.152344 29.921875 C 90.695312 29.722656 90.171875 29.933594 89.972656 30.390625 C 89.074219 32.484375 88.03125 35.351562 85.222656 36.476562 C 84.765625 36.664062 84.539062 37.183594 84.722656 37.644531 C 84.90625 38.105469 85.429688 38.328125 85.886719 38.144531 Z M 85.886719 38.144531 "/><path style=" stroke:none;fill-rule:evenodd;fill:#926a4c;fill-opacity:1;" d="M 77.644531 40.148438 C 81.066406 39.324219 83.5 39.933594 86.011719 41.023438 C 87.804688 41.800781 89.632812 42.8125 91.84375 43.765625 C 92.296875 43.964844 92.824219 43.75 93.023438 43.296875 C 93.214844 42.84375 93.007812 42.316406 92.550781 42.121094 C 90.339844 41.167969 88.515625 40.160156 86.726562 39.382812 C 83.871094 38.144531 81.109375 37.46875 77.226562 38.402344 C 76.746094 38.515625 76.449219 39 76.5625 39.480469 C 76.679688 39.964844 77.164062 40.261719 77.644531 40.148438 Z M 77.644531 40.148438 "/><path style=" stroke:none;fill-rule:evenodd;fill:#dce2ad;fill-opacity:1;" d="M 26.386719 109.160156 C 36.890625 111.289062 53.984375 110.253906 60.707031 108.789062 C 61.296875 108.660156 61.671875 108.078125 61.542969 107.484375 C 61.414062 106.894531 60.832031 106.519531 60.238281 106.648438 C 53.695312 108.078125 37.050781 109.082031 26.820312 107.015625 C 26.230469 106.894531 25.652344 107.28125 25.535156 107.871094 C 25.414062 108.464844 25.796875 109.039062 26.386719 109.160156 Z M 26.386719 109.160156 "/><path style=" stroke:none;fill-rule:evenodd;fill:#dce2ad;fill-opacity:1;" d="M 36.503906 113.476562 C 43.933594 114.125 58.867188 113.625 66.542969 110.363281 C 67.101562 110.128906 67.359375 109.484375 67.125 108.929688 C 66.886719 108.371094 66.246094 108.113281 65.6875 108.347656 C 58.277344 111.5 43.863281 111.921875 36.691406 111.296875 C 36.089844 111.246094 35.5625 111.691406 35.507812 112.292969 C 35.457031 112.894531 35.902344 113.421875 36.503906 113.476562 Z M 36.503906 113.476562 "/></g></svg>