<svg xmlns="http://www.w3.org/2000/svg" xmlns:xlink="http://www.w3.org/1999/xlink" width="1366" zoomAndPan="magnify" viewBox="0 0 1024.5 191.249993" height="255" preserveAspectRatio="xMidYMid meet" version="1.2"><defs><clipPath id="55c6346e9c"><path d="M 1.753906 0.105469 L 1022.25 0.105469 L 1022.25 154.011719 L 1.753906 154.011719 Z M 1.753906 0.105469 "/></clipPath><clipPath id="475fdb03bf"><path d="M 48.847656 0.105469 L 975.15625 0.105469 L 1052.457031 154.011719 L -28.453125 154.011719 Z M 48.847656 0.105469 "/></clipPath><clipPath id="11dde06d42"><path d="M 1.753906 0.105469 L 1022.25 0.105469 L 1022.25 154 L 1.753906 154 Z M 1.753906 0.105469 "/></clipPath><clipPath id="db266544f8"><path d="M 48.851562 0.105469 L 974.914062 0.105469 L 1052.195312 153.972656 L -28.429688 153.972656 Z M 48.851562 0.105469 "/></clipPath><clipPath id="9d463a4234"><path d="M 1.753906 154.011719 L 1022.25 154.011719 L 1022.25 190.503906 L 1.753906 190.503906 Z M 1.753906 154.011719 "/></clipPath></defs><g id="3c2f45ebe2"><g clip-rule="nonzero" clip-path="url(#55c6346e9c)"><g clip-rule="nonzero" clip-path="url(#475fdb03bf)"><path style=" stroke:none;fill-rule:nonzero;fill:#ebcb98;fill-opacity:1;" d="M -28.453125 0.105469 L 1052.5 0.105469 L 1052.5 154.011719 L -28.453125 154.011719 Z M -28.453125 0.105469 "/></g></g><g clip-rule="nonzero" clip-path="url(#11dde06d42)"><g clip-rule="nonzero" clip-path="url(#db266544f8)"><path style="fill:none;stroke-width:7.985878;stroke-linecap:butt;stroke-linejoin:miter;stroke:#c29377;stroke-opacity:1;stroke-miterlimit:4;" d="M 103.285151 0.000290421 L 1340.957053 0.000290421 L 1444.242557 205.64202 L -0.000352426 205.64202 Z M 103.285151 0.000290421 " transform="matrix(0.748229,0,0,0.748229,-28.429424,0.105251)"/></g></g><g clip-rule="nonzero" clip-path="url(#9d463a4234)"><path style=" stroke:none;fill-rule:nonzero;fill:#e4b791;fill-opacity:1;" d="M 0.851562 154.011719 L 1023.15625 154.011719 L 1023.15625 190.503906 L 0.851562 190.503906 Z M 0.851562 154.011719 "/></g></g></svg>